<svg version="1" xmlns="http://www.w3.org/2000/svg" width="422.667" height="422.667" viewBox="0 0 317.000000 317.000000"><path d="M138 .6c-30 5.6-46.8 12.1-67.5 25.8C40.6 46.4 18 76.2 7.2 110 1.3 128.5.5 134.5.5 158.5s.8 29.9 6.7 48.5c15.3 48.1 54.6 87.4 102.8 102.8 18.5 5.9 24.5 6.7 48.5 6.7s29.9-.8 48.5-6.7c48.1-15.3 87.4-54.6 102.8-102.8 5.9-18.5 6.7-24.5 6.7-48.5s-.8-29.9-6.7-48.5C294.7 62.5 255.9 23.3 208.5 7.7 191.3 2 184 .9 161.5.5 150 .3 139.4.4 138 .6zM183.2 17c17.7 3 37 10.3 51.3 19.2 32.6 20.5 55.7 53.2 64.6 91.8 3 12.6 3.7 38.2 1.5 52.5-2.8 17.8-11.3 40.6-20.4 54.9-14.4 22.5-35.6 41.3-59.5 52.6-20.5 9.8-33.7 12.9-57.2 13.7-27 .9-45-3-69.2-14.7C66 273.2 42.7 249.5 29 220.7c-9.8-20.5-12.9-33.7-13.7-57.2-.4-14.4-.2-18.8 1.5-29 6.8-39 28.1-72.5 60.1-94.4 18.5-12.6 41.8-21.6 63.6-24.4 9.5-1.2 32-.6 42.7 1.3z"/><path d="M158.6 26.2c-.9 7-2.6 34.1-2.2 34.6.3.2 4.1.6 8.5.9l8.1.6v-4.2c0-3.9-.1-4.1-3.1-4.1h-3.2l.7-8c.3-4.4.9-11.6 1.2-16l.7-8h-10.2l-.5 4.2zM126.8 24.7c-4.1 1.1-5.8 2-5.8 3.2.1 4.1 3.7 37.1 4.1 37.5.2.2 2.6-.1 5.2-.7l4.9-1.1-.6-3.8c-.5-3.3-.4-3.8 1.3-3.8 1.2 0 2.3 1.1 3 3.1 1 3 1.2 3.1 5.3 2.4 2.4-.4 4.6-1 5-1.4.4-.3-2.5-8.8-6.4-18.9-5.2-13-7.6-18.2-8.7-18.1-.9.1-4.2.8-7.3 1.6zm7.3 24.4c-.9.4-1.7.6-1.7.5-.1 0-.4-3.3-.8-7.1l-.6-7 2.4 6.5c2 5.8 2.1 6.6.7 7.1zM187.7 43.6c-4.8 9.6-8.7 17.6-8.7 17.9 0 .6 3.8 2.2 7.6 3.1 2.1.5 2.6.2 3.5-2.5 1.2-3.3 1.6-3.6 3.6-2.3.9.6 1 1.7.4 3.9-.9 3.1-.8 3.2 3.7 4.7 3.1 1.1 4.8 1.3 5.2.6.8-1.3 7.3-37 6.9-37.5-.2-.2-3.4-1.4-7-2.8l-6.5-2.5-8.7 17.4zm11.9-.9c-2.1 8.6-2.8 10.3-4.1 10.3-2 0-1.9-.3 1.1-7.1 2.9-6.3 4-7.6 3-3.2zM92.4 39.2c-4.9 2.8-9 5.2-9.2 5.3-.2.1.5 1.9 1.4 3.9 1.7 3.5 1.8 3.6 4.2 2 3.1-2 2.5-2.7 11.9 13.7 6.7 11.6 6.8 11.7 9.3 10.4 6.8-3.6 6.9-2.8-1.6-17.4-7.3-12.6-7.6-13.5-5.9-14.7 1-.8 2.3-1.4 2.7-1.4.9 0-1.7-5.6-3-6.4-.5-.3-4.9 1.8-9.8 4.6zM220.5 58.5c-6.9 9.1-11.5 15.9-10.9 16.4 2.7 2.5 13.7 10.1 15.5 10.6 3.2 1 6.4-1.8 15-13.3 8.2-11.1 9.2-13.9 6.4-17.9-1.4-2-12.7-11.3-13.8-11.3-.2 0-5.7 7-12.2 15.5zm17.5-2.1c0 1.4-12.2 18-14 19.1-.5.3-1.4.3-2 0-1.1-.7 14.1-21.5 15.3-20.8.4.2.7 1 .7 1.7zM64.4 59.4c-6.7 3-10.6 11.7-7.2 16.4 4.2 6.1 9.1 7.5 18.6 5.4 3.6-.8 4.6-.7 6.7 1 2.6 2 3.4 4.8 1.3 4.8-.7 0-2.4-1.1-3.8-2.5L77.4 82l-3.5 3.6-3.4 3.5L74 92c6.3 5.3 14.3 3.1 18.5-5.1 2.4-4.6 1.8-6.9-3-11.7L85 70.7l-6.3.6c-3.4.3-7.1.9-8.3 1.2-2.8.9-7.4-2.8-5.7-4.6 1-1 1.7-.9 3.3.6 2 1.8 2.1 1.8 5.5-1.5l3.4-3.3-3.6-2.8c-4-3.3-4.6-3.4-8.9-1.5zM141 68.4c-8.7 1.9-15.1 4.1-23.4 8.2-10.4 5.2-15.3 8.9-24.6 18.4-11.8 12-19.1 24.9-23.7 42-2.5 9.1-2.5 33.9 0 43 4.8 17.8 11.9 30.1 24.7 43 12.9 12.8 25.2 19.9 43 24.7 9.4 2.6 33.8 2.5 43.5-.1 17-4.6 29.9-12.1 42.5-24.6 12.5-12.6 20-25.5 24.6-42.5 2.7-9.9 2.7-34.1 0-44-5.5-20.4-17.7-38.8-33.9-51.1-7.4-5.6-23.7-13.5-32.7-15.9-8.8-2.3-31.3-2.9-40-1.1zm32.8 15.2c53.7 11.1 78.4 72.2 47.8 118.2-19.6 29.5-59.4 41.2-92.8 27.3-48.9-20.5-62.4-83.9-26.1-123.1 17.4-18.8 45.5-27.7 71.1-22.4z"/><path d="M159.5 90.8c-1.1.4-3 1.4-4.1 2.2-1.9 1.4-2 2.3-1.6 19.2l.4 17.6 4.8.7c8.2 1.1 20.9-1.7 21.1-4.7 0-.7.6-8.6 1.2-17.5l1.2-16.2-2.3-1c-2.5-1.2-17.4-1.3-20.7-.3z"/><path d="M184.5 113.5c-2.9 2.8-3.2 7.2-1 11.6 1.3 2.5 1.4 3.6.4 6.7-.6 2-1.3 4.2-1.5 4.9-.2.6-3.6 3.7-7.7 6.7-6.5 5-7.4 5.9-6.9 8.2l.5 2.7 9.1-.7c8.5-.6 9.3-.5 11.1 1.4l1.9 2.1 2.4-2.6 2.4-2.7-1.8-4.1c-1-2.3-2.6-5.1-3.6-6.3-1-1.1-1.7-2.7-1.4-3.5.2-.8.7-2.6 1-4 .3-1.5 2.1-3.8 4-5.3 2.8-2.1 3.9-2.4 6-1.6 3.1 1.1 5.4 5.5 6.3 11.5.5 4.2.8 4.5 3.6 4.5h3l-.7-5.1c-1.2-8.6-5-14.6-10.9-16.8-1.5-.6-3-1.9-3.4-2.8-1.1-3.2-5.6-7.3-8-7.3-1.3 0-3.5 1.1-4.8 2.5zM125.8 115.5c-.4.5.7 7.4 3.3 20.2l1 5.1 4.4-1.4c2.4-.9 6-3 8.2-4.9l3.8-3.4-8-8c-7.2-7.3-10.8-9.5-12.7-7.6zM137.9 179.8l-8.6 14.9-1.3 13.9c-.6 7.6-1.4 14.7-1.6 15.6-.5 1.5.1 1.8 3.8 1.8 10.8 0 11-.1 15-10.8 2.2-5.6 4.6-10.2 5.7-10.9 1.9-1.2 2.2-.6 5.8 10.3 2.8 8.6 4.3 11.8 5.8 12.4 1.1.4 5.7 1.1 10.2 1.5l8.2.7-2.6-8.9c-1.3-4.8-4.3-18.9-6.6-31.3-2.2-12.4-4.1-22.6-4.1-22.6-.1-.1-4.8-.5-10.6-.9l-10.5-.6-8.6 14.9zM251.4 82.6c-10.6 6.6-14.1 9.8-14.9 13.4-1.2 5.6 4.2 13.5 10.1 14.6 3.7.7 6.4-.6 18.4-8.6 11.2-7.5 12.7-10.7 9-18-4.6-8.9-10-9.3-22.6-1.4zM268 87c0 .4-5 4-11.1 8-8 5.3-11.4 6.9-12.2 6.1-1.3-1.3-2.2-.6 10.7-8.9 10.1-6.5 12.6-7.6 12.6-5.2zM39.7 90.5l-1.6 3.4 7 3.7c3.8 2 6.8 3.8 6.6 4-.3.4-8.8-.9-14.3-2.1-1.7-.4-2.5.3-3.9 3.5-1 2.2-1.6 4.2-1.4 4.4.2.2 8.2 4.2 17.6 9L67 125l1.9-3.8 1.9-3.7-7.1-3.8c-6.8-3.6-7-3.8-3.2-3.2 13.8 2 12.8 2.1 14.8-1.9.9-2 1.7-3.9 1.7-4.1 0-.6-33.7-17.5-34.8-17.5-.5 0-1.6 1.6-2.5 3.5zM268.8 117.4c-9.7 2.8-17.9 5.4-18.3 5.7-.3.4-.1 2.7.6 5.3 1 4 1.4 4.6 3.1 4 2.8-.8 15.2-4.4 15.5-4.4.2 0 .3.7.3 1.5 0 .9-2.5 2.1-7.2 3.5-4 1.2-7.8 2.3-8.5 2.5-.8.3-.8 1.3.1 4.4.6 2.2 1.4 4.2 1.7 4.5.8.8 14.2-3.4 16.2-5.2.9-.8 1.7-2.2 1.7-3 0-1.2.3-1.2 2 .3 3.1 2.8 11.7.4 14.6-4 1.6-2.4 1.5-3-.7-11.5-1.2-5-2.5-9-2.8-8.9-.3.1-8.6 2.4-18.3 5.3zm15.2 8c0 2.1-5.9 3.9-7.8 2.4-1.3-1.1-.9-1.5 2.4-2.5 5.2-1.5 5.4-1.5 5.4.1zM24.5 131.6c-.3 2.5-.5 4.7-.3 4.9 1 .8 37.4 7.2 37.9 6.7.4-.4 1-2.6 1.4-4.9.5-3.5.4-4.2-1.2-4.7-3.1-.9-33.5-6.6-35.4-6.6-1.2 0-1.9 1.2-2.4 4.6zM50.5 198.2c-9.9 2.7-18.4 5.3-18.8 5.8-1.1.9 2.8 10 4.2 10 .5 0 2.1-.4 3.4-.9 3.9-1.5 4.4 1.5.6 3.4-2.4 1.3-2.9 2-2.3 3.8.8 2.8 3.3 7.7 3.9 7.7.2 0 7.4-4.3 15.9-9.5s16.1-9.8 16.9-10.1c1.3-.4 1-1.7-1.6-8-1.7-4.1-3.3-7.4-3.6-7.3-.3 0-8.7 2.3-18.6 5.1zm3.7 10.8c-1.8 1.1-3.8 1.7-4.5 1.3-.7-.4 0-1.2 1.8-1.9 4.7-2 6.3-1.6 2.7.6zM246.8 197.5c-1.4.8-3.6 3.5-4.8 6-2.9 6-2.1 10.5 2.3 13.9 4.3 3.3 22.2 11.6 25 11.6 5.7 0 11.7-7.1 11.7-13.8 0-4.7-3.5-7.9-15.1-13.7-11.3-5.7-14.6-6.4-19.1-4zm14.6 14c6.4 3 11.6 6 11.6 6.6 0 1.5-3 .4-14.2-5.2-5.4-2.7-9.8-5.4-9.8-5.9 0-1.4-.5-1.6 12.4 4.5zM65 221.5c-6.9 5.8-13 11.8-13.7 13.3-1.3 3.2.2 8.9 3.4 12.4 2.6 3 7.5 4.8 10.6 4 3.7-1 27.7-21.3 26.9-22.7-.4-.7-1.9-2.6-3.4-4.4l-2.8-3.2-12.6 10.6c-6.9 5.9-12.8 10.4-13.1 10.1-.9-.9.5-2.3 12.6-12.4l11.9-9.9-3.7-4.2-3.6-4.2L65 221.5zM227.9 224.7l-7 6.7 14.3 14.3 14.3 14.3 6.3-6.7c7.7-8.3 8.7-10.5 6.8-14.2-.8-1.5-6-6.8-11.5-11.9-12.9-11.7-13.6-11.8-23.2-2.5zm17 11.7c4.6 4.6 7.9 8.6 7.4 8.9-1.1.7-18.5-15.2-17.7-16.4 1-1.6 1.9-1 10.3 7.5zM91.3 233.5l-2.2 3.4 2.3 1.8 2.4 1.9-9.3 12.6-9.3 12.6 4.6 3.3c4.4 3.2 4.6 3.2 5.8 1.3.7-1 4.9-6.7 9.2-12.6 7.8-10.7 7.9-10.7 10.2-9.1 2.2 1.6 2.4 1.5 5-1.8l2.8-3.3-9.2-6.8c-5-3.7-9.3-6.7-9.6-6.7-.3-.1-1.5 1.5-2.7 3.4zM207.4 240.3l-6.2 4.2 9.2 18.2 9.1 18.1 4.7-3.2c4.4-3 4.5-3.3 3.2-5.6-2.8-5.1-.7-7 2.8-2.5l1.9 2.5 4.5-3.1c4.5-3.1 4.5-3.1 2.7-5.2-3.8-4.5-24.8-27.2-25.3-27.4-.3-.1-3.3 1.7-6.6 4zm14.7 18.9c.7 1.3.6 1.8-.4 1.8-.7 0-2.1-1.7-3.1-3.7l-1.8-3.8 2.2 2c1.2 1.1 2.6 2.8 3.1 3.7zM114 248.7c-3.4 3.1-12 22.7-12 27.3 0 8.4 13.9 14.5 20.2 8.7 2.9-2.7 11.8-23.3 11.8-27.4 0-3.8-2.3-6.9-7-9.3-5.5-2.8-9.4-2.6-13 .7zm10 5.8c0 1.2-9.2 23-10.1 23.9-.5.5-1.1.7-1.5.4-.7-.8 9.6-24.8 10.7-24.8.5 0 .9.2.9.5zM186.7 249.8c-8.3 2.8-8 2.4-5.6 8.9.7 2 1.2 2.1 3.5 1.3 1.5-.6 2.9-.9 3.1-.7.2.3.6 6 .9 12.8.3 6.8 1 13.8 1.5 15.6l1 3.1 9.2-3c5.1-1.7 9.3-3.2 9.5-3.3.6-.5-2.7-8-3.5-7.8-.4.1-2.1.5-3.6.8l-2.7.7-.1-11.8c-.1-12.2-1.4-18.8-4-19.1-.8-.1-4.9 1-9.2 2.5zM136.2 264.8c-.6 7-1.4 16.2-1.8 20.5l-.7 7.7h11l.7-4.6c.3-2.6.6-6.4.6-8.5 0-2.3.5-3.9 1.1-3.9.9 0 1 2.5.6 8.9l-.7 8.9 5.1.4c2.9.1 5.3-.1 5.4-.7.2-.6.6-4.5.9-8.8.5-6.8.3-8-1.4-9.7-1.4-1.4-1.6-2-.7-2 2 0 3.7-4.4 3.7-9.6 0-6.7-2.8-9-11.6-9.9-3.8-.3-7.8-.8-9-1-2-.4-2.2.1-3.2 12.3zm13.2 1c-.4 1.8-1 3.2-1.5 3.2-1 0-1.1-2.5-.3-5.8 1-3.5 2.5-1.1 1.8 2.6zM171.5 252.7c-1.6.2-3.9.5-5.1.8l-2 .4 2.4 19.9 2.5 19.9 4.6-.5c2.5-.2 5-.8 5.4-1.2.9-.8-3.3-40.1-4.2-39.9-.3.1-1.9.4-3.6.6z"/></svg>