<svg version="1" xmlns="http://www.w3.org/2000/svg" width="1066.667" height="1066.667" viewBox="0 0 800.000000 800.000000"><path d="M84.9 5.7c0 3.2-.4 14.7-.8 25.6-.6 18.9-.7 19.9-2.9 21.5-1.8 1.4-2.3 3.1-2.8 9.4-.4 4.3-1.1 7.8-1.6 7.8-.4 0-.5 6.2-.2 13.9l.7 13.9-4.1 2.1c-3.9 2-9.2 7.6-9.2 9.9 0 .6-.6 1.7-1.4 2.5-1.6 1.5-2 10.4-1 20.7.5 4.5.3 5.3-.7 4.2-.8-.8-4.4-1.2-10.2-1.2-7.5 0-9.1-.3-10.5-1.9-1.5-1.7-2.2-1.8-6.2-.7l-4.5 1.1-.3 7.3c-.3 7-.2 7.2 2.3 8.2 4.6 1.7 9.2 1.3 9.8-1 .5-1.8 1.4-2 9.5-2 6.2 0 9.3-.4 9.9-1.3 1.1-1.7 2.3 11.5 2.8 30.7.4 15.7 1.3 20.9 4.1 22 2.1.8 1.7 2.4-1.9 7.5-4.5 6.3-5.3 8.4-7.6 20.3C57 231.9 54.7 243 53 251c-18.4 86.2-19 90.3-15 103.2 4.5 14.5 14.9 24.4 30.6 29.1 2.8.8 7.6 2.9 10.8 4.7 6.7 3.8 10.9 3.7 17.2-.2 2.1-1.3 6.2-3.1 8.9-3.8 14.1-3.8 22.9-10.9 29.2-23.7l3.8-7.7v-13.1c-.1-8.3-.7-15.9-1.8-21-.9-4.4-3.1-14.8-4.7-23-1.7-8.3-3.7-17.9-4.5-21.5-2.3-10.1-8.3-42.7-9.5-51-.6-4.1-1.4-9-1.6-10.9-.3-1.9-1.8-4.7-3.5-6.3-3.6-3.6-3.7-6.3-.4-9.4 2.1-2 2.5-3.2 2.5-8.6.2-26.5 1.3-58.5 2.1-59.3.5-.5.9-3.2.9-6 0-9.3-6.8-20.1-14.7-23.4-2.9-1.2-3-1.5-3.6-8.9-.3-4.3-.3-10.3 0-13.5.3-3.4.2-6.2-.5-6.9-.6-.7-1.4-4.6-1.8-8.6-.6-6.5-.9-7.5-3.1-8.3-2.4-.9-2.4-1.1-1.9-10.1.3-5.1.8-16.8 1.2-26.1L94.1 0H85l-.1 5.7zM102 194.9c0 2.1-1.3 4.1-2.6 4.1-.8 0-1.4-1-1.4-2.5 0-1.8.5-2.5 2-2.5 1.1 0 2 .4 2 .9zm-16.7.8c-.7.2-1.9.2-2.5 0-.7-.3-.2-.5 1.2-.5s1.9.2 1.3.5zm1.9 15.5c-.6.6-1.1.2-1.5-1.1-.3-1.2-.1-2.1.4-2.1s.8-.3.8-.8c-.1-.4 0-1.4.1-2.2.2-.8.5 0 .7 1.9.3 1.8 0 3.8-.5 4.3zm7.5-2.5c-.3 1-.5.2-.5-1.7s.2-2.7.5-1.8c.2 1 .2 2.6 0 3.5zm8 9c-.3 1-.5.4-.5-1.2 0-1.7.2-2.4.5-1.8.2.7.2 2.1 0 3zm-29.4 32.8c-.3.9-.8 1.4-1 1.1-.3-.3-.2-.9.2-1.5.9-1.6 1.5-1.3.8.4zm1.3 4c-.3.9.1 1.8.9 2.1.8.4 1.5 1 1.5 1.6 0 .5-.5.6-1.2.2-.6-.4-.8-.3-.4.4.3.6.2 1.4-.4 1.7-1.2.7-1.1 11.5.1 11.5.8 0 1.5-2.9 2.4-10.5.4-2.8 1.1-5.7 1.6-6.5.6-1 .9 4.3.8 14.8 0 9 .1 16.6.4 16.8.7.7 2.8-8.6 2.2-9.6-.3-.5-.1-1.1.5-1.5.5-.3.9-1.8.9-3.3l-.1-2.7-.8 3-.8 3-.1-2.7c0-1.5.3-2.9.9-3.3.5-.3.7-1.2.4-2-1-2.4 1.6-12.5 3.2-12.5.8 0 1.4.6 1.4 1.3 0 .7.9 2 2 3 1.9 1.6 2 1.6 2-.1 0-1.4.2-1.5 1-.2.9 1.3 1 1.3 1 0 .1-.8.7-.2 1.5 1.5l1.3 3 .2-3.5c.1-1.9.2-3.8.1-4.3-.2-1.1 1.7-.9 2.4.3.4.6 1.3.4 2.3-.7 1.6-1.6 1.7-1.5 2.2 1.3.3 1.6.9 2.8 1.5 2.6.5-.2 1.2.5 1.6 1.5.6 1.3.8.8.8-1.7.1-2.9.5-3.6 2.1-3.6 1.8 0 2 .7 2 5.6 0 16.9 1.1 41.2 1.9 45.5.6 2.7 1.4 10.6 1.7 17.6.6 11.4.5 13-1.5 18.5-1.3 3.2-2.8 7.9-3.4 10.4-.9 4-1.1 4.2-1.7 2l-.6-2.5-1.8 2.8c-1 1.5-2.1 2.5-2.4 2.2-.3-.2-1.2.1-2.1.7-1.3 1-1.4 1-.3-.2 1.7-2 1.5-3-.5-2.4-1.6.5-1.6.4.1-1 1.7-1.4 1.4-4.2-.5-3.1-.5.3-.6-.2-.3-1.2.4-1.3 0-1.1-1.6.7l-2.3 2.5.8-2.4c.6-1.8.4-2.2-.6-1.5-1.1.6-1.2.5-.3-.7 2.5-3.1 4.8-31.9 2.6-31.9-.8 0-2.2 10.7-3.8 28.7-.3 4-1 7.3-1.5 7.3s-1.1 1.1-1.5 2.4c-.7 2.7-3 4.1-4 2.4-.4-.6-.3-.8.4-.5.6.5.8-.1.5-1.4-.4-1.6-.8-1.7-1.4-.7-.6.8-.9-.1-1-2.7 0-3-.2-3.5-.8-2-.7 1.7-.8 1.6-1.3-.9-.8-4.1.3-16 1.3-14.4.6.9.9.2.9-1.9 0-1.7-.5-3.5-1.1-3.9-.8-.5-.8-.9.1-1.4.8-.5.8-.9-.3-1.3-1.4-.5-2.5 4.8-3.2 15.3-.1 1.4-.5 3.8-.8 5.5-.3 1.6-.8 4.6-1.2 6.6-.5 3.2-.9 3.6-2.7 3.1-1.3-.3-1.9-.1-1.5.5.7 1.1-1.8 1-4.7-.2-1.1-.5-2.1-.3-2.5.3-.4.7-1.5-.8-2.6-3.4-1.1-2.8-2.8-4.9-4.2-5.5-2.7-1-2.9-2.9-.9-10.8.8-3.1 1.7-10.1 2-15.6.3-5.5.8-14.3 1.1-19.5.3-5.2.7-15.4 1-22.5.7-16.6 1.6-25.9 2.5-24.5.4.7 1.3.4 2.5-1 2.2-2.4 5-2.7 4.1-.5zm-10.9 10.7c-.2 2.4-.4.7-.4-3.7s.2-6.3.4-4.3c.2 2.1.2 5.7 0 8zm1 8c-.3.7-.5.2-.5-1.2s.2-1.9.5-1.3c.2.7.2 1.9 0 2.5zm22 86c-.3.8-.6.5-.6-.6-.1-1.1.2-1.7.5-1.3.3.3.4 1.2.1 1.9z"/><path d="M96.9 273.2c0 3.3-.2 3.8-.9 2.3-.5-1.1-1-1.6-1.1-1-.5 2.5-1.1 25.8-1 35.9.1 6.2 1.1 3.6 1.6-4.5.9-12.9 1.5-18.2 2-18.7.3-.3-.1-1.2-.8-2-.9-1.3-.9-1.4.1-.8.9.5 1.2-1.2 1.2-7.3 0-4.5-.2-8.1-.5-8.1s-.5 1.9-.6 4.2zM86.2 273c0 1.4.2 1.9.5 1.2.2-.6.2-1.8 0-2.5-.3-.6-.5-.1-.5 1.3zM74.7 273.7c-.4.3-.7 3.1-.7 6.1 0 3.1.3 5.2.7 4.9.5-.5 1.2-11.7.7-11.7 0 0-.4.3-.7.7zM104.2 279c0 1.9.2 2.7.5 1.7.2-.9.2-2.5 0-3.5-.3-.9-.5-.1-.5 1.8zM84.3 282c0 2.5.2 3.5.4 2.2.2-1.2.2-3.2 0-4.5-.2-1.2-.4-.2-.4 2.3zM104.2 285c0 1.4.2 1.9.5 1.2.2-.6.2-1.8 0-2.5-.3-.6-.5-.1-.5 1.3zM104 299c0 6.2.2 11.1.5 10.8.7-.7.8-20.9.1-21.6-.3-.3-.6 4.6-.6 10.8zM83.6 289.9c-.3.5-.8 6.9-1 14.2-.3 7.4-.8 15.9-1.1 19.1-.3 3.1-.2 5.9.3 6.2.5.3.9-.8 1-2.4.1-1.7.3-3.8.3-4.8.1-.9.8-4.4 1.5-7.7 1.6-6.8 1.9-25.5.5-25.5-.6 0-1.2.4-1.5.9zM91.3 293.5c0 2.7.4 5.9.8 7 1.1 2.7.9-4.9-.1-9-.7-2.5-.8-2.2-.7 2zM79.2 304.2c.1 13.3.1 13.3.9 4.8.4-4.7 1-10.6 1.2-13.3.4-3.5.1-4.7-.9-4.7s-1.3 2.8-1.2 13.2zM71.9 296.7c-.1 2.7-.2 5.6-.2 6.5 0 1-.4 1.8-.8 1.8-.5 0-.9 1-.8 2.2 0 1.3.3 1.7.6 1 .2-.6.9-1 1.4-.6.5.3.9-2.9.9-7.5 0-8.6-.9-11.3-1.1-3.4zM98.3 297.5c0 2.7.2 3.8.4 2.2.2-1.5.2-3.7 0-5-.2-1.2-.4 0-.4 2.8zM75.7 295.7c-1.1 1-.8 4.3.3 4.3.6 0 1-1.1 1-2.5 0-2.6-.2-2.9-1.3-1.8zM76.1 304.7c.7 1 1.5 2 1.6 2.2.2.2.3-.5.3-1.7 0-1.4-.6-2.2-1.6-2.2-1.4 0-1.5.3-.3 1.7zM97 306.9c0 2.3.2 4.1.4 4.1.8 0 1.2-7.1.4-7.6-.4-.3-.8 1.3-.8 3.5zM100.6 305.5c-.3.9-.6 2.6-.5 3.8.1 1.4.4.9.9-1.3.9-3.7.7-5.2-.4-2.5zM77.1 309.6c0 1.1.3 1.4.6.6.3-.7.2-1.6-.1-1.9-.3-.4-.6.2-.5 1.3zM71.5 309.9c-.3.5-.2 1.2.3 1.5.5.3.9-.1.9-.9 0-1.7-.3-1.9-1.2-.6zM96.6 312.8c-.2.4-.1 1.4.4 2.2.7 1.1.9.9.7-.8-.1-2.4-.3-2.6-1.1-1.4zM71.2 315.5c0 1.6.2 2.2.5 1.2.2-.9.2-2.3 0-3-.3-.6-.5.1-.5 1.8z"/><path d="M94.1 316.5c-.1 1.1-.4 3.1-.6 4.5l-.6 2.5L94 321c.6-1.3.9-3.3.7-4.5-.4-1.9-.4-1.9-.6 0zM79.2 320c0 1.4.2 1.9.5 1.2.2-.6.2-1.8 0-2.5-.3-.6-.5-.1-.5 1.3zM101.3 324c0 3 .2 4.3.4 2.7.2-1.5.2-3.9 0-5.5-.2-1.5-.4-.2-.4 2.8zM76.3 328c0 2.5.2 3.5.4 2.2.2-1.2.2-3.2 0-4.5-.2-1.2-.4-.2-.4 2.3zM93.1 326.6c0 1.1.3 1.4.6.6.3-.7.2-1.6-.1-1.9-.3-.4-.6.2-.5 1.3zM81.1 333.6c0 1.1.3 1.4.6.6.3-.7.2-1.6-.1-1.9-.3-.4-.6.2-.5 1.3zM107.1 338.6c0 1.1.3 1.4.6.6.3-.7.2-1.6-.1-1.9-.3-.4-.6.2-.5 1.3zM65.8 341.8c-.3.9-.1 2.6.3 3.7.6 1.5.8 1.1.8-1.8.1-4-.4-4.8-1.1-1.9zM80.1 342.6c0 1.1.3 1.4.6.6.3-.7.2-1.6-.1-1.9-.3-.4-.6.2-.5 1.3zM74 344.1c0 1.9-.2 2.1-1 .9-1.7-2.6-1.2 1 .5 4.4.9 1.6 1.3 3.1 1.1 3.3-.2.3-1-.5-1.6-1.8-1.1-2-1.3-2-2.2-.6-1 1.8.6 5.7 2.3 5.7.6 0 .7.4.4 1-.3.5 0 .7.9.4 1.1-.4 1.4-2.1 1.1-7.5-.3-6.6-1.5-11.1-1.5-5.8zM86.1 346.6c0 1.1.3 1.4.6.6.3-.7.2-1.6-.1-1.9-.3-.4-.6.2-.5 1.3zM336.6 23.7c-.7 21.8-.9 23.9-2.6 25.3-1.4 1-2.1 3.3-2.6 7.5-.3 3.3-.7 6.7-.8 7.7-.1.9-.8 2.3-1.4 3.1-1 1.1-1.1 3.5-.5 9.4.5 4.3.7 10.3.5 13.3-.4 5.5-.5 5.6-4.8 8-3.5 1.8-5.4 3.9-8.4 9-3.4 5.9-3.9 7.4-3.9 13.3 0 3.7.3 6.8.7 7.1.4.2.5 3 .3 6.3-.3 4.5-.5 5.3-1.2 3.5-.8-2.1-1.4-2.2-10.2-2.2-8.4 0-9.6-.2-10.8-2.1-1.3-1.8-1.9-1.9-6.4-1.2-4.7.8-5.1 1.1-5.9 4.4-.5 2-.6 5.6-.2 8.1.7 4.3.9 4.6 4.4 5.3 2 .3 4.5.8 5.4 1.1 1.3.4 2.1-.2 2.8-2 .9-2.6 1.1-2.6 10.9-2.6 8.6 0 10-.2 10.4-1.8.3-.9.5 1.1.6 4.5 0 3.4.6 7.4 1.2 9 .5 1.5 1.2 10.3 1.5 19.5.4 16.2 1.3 21.8 3.4 21.8 1.4 0 1.2 3.7-.2 4.7-3.2 2-5.7 9.2-7.3 20.8-.9 6.6-6.1 31.6-11.5 55.5-14.6 63.8-15.1 67.2-13.1 76.3 3.2 13.8 15.2 27.7 27.8 32.2 2.7 1 8.1 3.3 12.2 5.1 9.1 4.2 15 4.5 21.9 1 2.6-1.3 7.7-3.3 11.4-4.4 3.6-1.2 8.9-3.2 11.6-4.6 6.1-3.1 14.2-11.8 17.9-19.4 2.4-4.9 2.8-7.2 3.1-16.2.5-12 .2-13.6-8.4-60-9.3-49.6-10.1-54.4-11.4-65.4-1.4-12-2-13.7-6.5-18.1-3.9-3.9-4.5-7-1.6-8 3.5-1.1 4.3-5 4-18.8-.4-16.9 1-52 2.1-53.1 1.6-1.6-.1-12.9-2.8-18.4-2.7-5.6-6.5-9.4-11.9-12-2.9-1.4-3.2-2-3.5-6.6-.2-2.8 0-8.7.3-13.1.4-5.4.2-8.6-.6-10-.7-1.1-1.6-5.3-2-9.3-.6-6.1-1.1-7.5-2.9-8.3-2.1-1-2.1-1.3-1.8-24.9l.3-24h-8.8l-.7 23.7zm22.1 86.9c-.3.4-.2 1.4.2 2.3.7 1.3.4 1.6-1.5 1.6-1.6 0-2.2-.4-1.9-1.3.3-.8.5-1.8.5-2.3 0-.5.8-.9 1.7-.9.9 0 1.3.3 1 .6zM335 150c0 .5-.4 1-1 1-.5 0-1-.5-1-1 0-.6.5-1 1-1 .6 0 1 .4 1 1zm22.7 1.6c-.3.4-1.4.3-2.4 0-1.5-.6-1.5-.8-.3-1.6 1.6-1 3.9.4 2.7 1.6zm-.7 6.4c0 .5-.4 1-.9 1-.6 0-1.3-.5-1.6-1-.3-.6.1-1 .9-1 .9 0 1.6.4 1.6 1zm.2 10.5c.3 2.4 0 3.5-.9 3.5-1.3 0-1.9-5.1-.6-6.3 1-1.1 1.1-.9 1.5 2.8zm-21.5 3.1c-.3.3-1.2.4-1.9.1-.8-.3-.5-.6.6-.6 1.1-.1 1.7.2 1.3.5zm-.2 4.4c-.3.5-1.2 1-1.8 1-.7 0-.6-.4.3-1 1.9-1.2 2.3-1.2 1.5 0zm23.3.7c-1 .2-2.6.2-3.5 0-1-.3-.2-.5 1.7-.5s2.7.2 1.8.5zm-21.8 3.7c0 .2-.7.6-1.5 1-.8.3-1.5.1-1.5-.4 0-.6.7-1 1.5-1s1.5.2 1.5.4zm21.1 1.5c-.8.5-1.2 1.9-.9 3.5.3 1.7.1 2.6-.7 2.6-.7 0-1.1-1.1-.9-2.7.1-1.5-.3-3.1-.9-3.5-.7-.5.1-.8 1.8-.8 2.1 0 2.6.3 1.6.9zM337 198.6c0 3.1-2.3 2.8-2.8-.4-.2-1.5.2-2.2 1.2-2.2 1.1 0 1.6.9 1.6 2.6zm16.7-1.9c-.4.3 0 1.5 1 2.5 1.5 1.7 1.5 1.8-1.2 1.8-2.2 0-2.5-.3-1.6-1.3.8-1 .7-1.7-.1-2.5-.9-.9-.8-1.2.7-1.2 1 0 1.5.3 1.2.7zm-4.5 13.5c-.9.9-1.2.7-1.2-1.2s.3-2.1 1.2-1.2c.9.9.9 1.5 0 2.4zm-8.1 2.5c-.9 1.6-1 1.4-1.1-1.2 0-2.1.3-2.6 1.1-1.8s.8 1.6 0 3zm3.9-1.3c0 .3-.4.8-1 1.1-.5.3-1 .1-1-.4 0-.6.5-1.1 1-1.1.6 0 1 .2 1 .4zm14.7 5.9c.4 2.4.2 3.7-.6 3.7-.6 0-1.2 2.1-1.2 5.2-.1 4-.4 3.2-1-3.7-.4-4.9-.5-9.3-.2-9.8.9-1.5 2.3.8 3 4.6zm-24.2-2.3c.3.5.2 1.7-.3 2.6-.8 1.4-1 1.2-1.4-1-.5-2.6.5-3.5 1.7-1.6zm-6.1 7.8c-.2 1.5-.7 4.5-1.3 6.7-.8 3.6-.9 3.1-1-4.5 0-7.3.2-8.3 1.3-6.7.7.9 1.2 3 1 4.5zm14.9-3.5c.4-.3.7-.1.7.5 0 1.4-.2 1.4-2.4.6-.9-.3-1.6-1.1-1.6-1.6 0-.7.5-.6 1.3.1.8.6 1.7.8 2 .4zm5.7-.9c0 .2-.7.9-1.5 1.6-1.2 1-1.5 1-1.5-.4 0-.9.7-1.6 1.5-1.6s1.5.2 1.5.4zm1.3 12.6c-.8.9-2.3-2.6-2.3-5.6 0-5.1 1.5-4.9 2.1.3.3 2.6.4 5 .2 5.3zm7.4 5.2c-.3.7-.5.2-.5-1.2s.2-1.9.5-1.3c.2.7.2 1.9 0 2.5zm-30.3 1.3c.5 2.2.4 2.6-.4 1.5-.5-.8-1-2.4-1-3.4 0-2.6.6-1.8 1.4 1.9zm.3 10.7c-.3.8-.6.5-.6-.6-.1-1.1.2-1.7.5-1.3.3.3.4 1.2.1 1.9zm19.2 1.4c1.3-.8 6.4 7.1 5.5 8.5-.3.6.4 2.5 1.7 4.2 2.2 3.1 2.2 3.1.1 1.3-1.9-1.7-2.2-1.7-2.2-.3 0 1-.4 1.8-1 1.8-.5.1-1.4.3-2 .4-.5.1-1.3.3-1.6.4-.4 0-.1.8.6 1.6 1.3 1.5 4.5 2.2 3.6.7-.2-.4.5-.8 1.6-.8 1.9 0 1.9.1.1 1.6-1.9 1.5-1.9 4.5-.1 6.7.6.7.6 1.3.1 1.3s-1.5-.6-2.2-1.3c-.9-.8-.8-.2.2 1.9 1.2 2.3 1.3 3.4.5 4.2-.9.9-.6 1.9 1.3 3.9 1.4 1.7.7 1.3-1.9-1-5.4-4.7-6.3-4.7-2.3 0 5.8 6.9 5.6 6.6 3.4 5.9-1.1-.4-3.1-.2-4.4.4-2.3 1-2.2 1 .6.6 2.5-.4 2.7-.2 1.3.8-1.6 1.2-1.6 1.4.2 3.2 2.3 2.2 3.1 8.5 1.3 9.1-.8.3-1.3-.5-1.3-2 0-1.4-.7-2.8-1.6-3.1-.9-.4-1.7-.5-1.8-.4-.1.2-.7 1.1-1.4 2-1.1 1.4-1 2.1.4 4.3.9 1.4 2.3 2.4 3 2.1.8-.3 1.1 0 .8.9-.3.8.6 3 2.1 4.9 2.4 3.2 2.5 3.7 1 4.2-.9.4-2.8.2-4.1-.5-2.5-1.1-2.5-1.1-1 1.1 2.6 3.7 1.8 4.2-1.1.6-1.6-1.8-3-3.4-3.3-3.6-2.8-1.4-3.4-2.3-2.3-3 .8-.5.9-2 .2-5.2-.6-2.5-1-5.1-1.1-5.8l-.2-1.2c-.1 0-2.1.6-4.6 1.4-4.4 1.3-4.5 1.4-4.7 5.7-.1 2.4-.3 4.8-.4 5.4-.7 2.9-.3 6.5.6 6.2.5-.2.9-1.2.7-2.1-.2-.9.2-2.4.7-3.4.7-1 1.1-1.2 1.1-.4 0 .7.5 1 1.1.6.8-.4.4-1.1-1-1.8l-2.1-1.2 2.5-2.2c1.4-1.2 2.5-1.7 2.5-1.2 0 .6.8 1 1.8 1 1.5 0 1.8.6 1.4 3-.2 1.6-.8 2.8-1.2 2.5-.5-.3-1.8.8-3 2.5l-2.1 3h2c1.4 0 2.1-.6 2.1-2 0-1.1.5-2 1-2 .6 0 1 1.4 1 3.2 0 1.7-.3 2.8-.6 2.5-.4-.3-1.6-.1-2.7.5-1.2.6-3 1.1-4.2 1.2-1.6.1-2 .9-2.2 4.1-.2 3.5-.1 3.8 1 2.1 2.7-4.1 5-6.7 5.4-6.2.3.2-1 2.6-2.7 5.1-3 4.4-3.1 4.6-.8 3.1 1.4-.9 3.1-2.7 3.8-4.1 1.4-2.7 3.6-3.5 2.6-1-.3.8-.1 1.5.4 1.5.6 0 1 .5 1 1.1 0 .6-.7.8-1.6.5-1.1-.4-1.8.1-2.1 1.4-.3 1.1-.8 2-1.2 2-.4 0-1.5 1.3-2.4 3-2 3.4-1.8 3.6 2.2 1.5 2.3-1.2 2.7-1.9 2.3-4.1-.4-2.4-.2-2.6 1.7-2.1 2.1.5 2.7-.7 2.2-4.3-.8-5.1-.7-11 0-11 .5 0 1.9 2.1 3.1 4.6 1.8 3.5 2.7 4.4 4.2 4 1.4-.4 1.6-.2.7.7-1.6 1.6-1.4 2.3 1.1 4.7 1.8 1.7 2.2 3.2 2.3 8.3 0 4.8.3 6.2 1.5 6.2s1.4 1.2 1.1 6c-.3 6.4-1 7.4-4.4 6.8-1.6-.3-3 .6-5.1 3.3-2.8 3.6-2.8 3.6-.5 2.9 2.1-.7 2.2-.6 1 .8-.7.9-1.7 1.4-2.2 1.2-.4-.3-1.3.4-1.9 1.5-.9 1.6-.8 2 .5 2 2 0 1.9 1.6-.2 3.2-2.5 1.8-2.9 5.6-.7 6.5 1.5.6 1.4.7-.5 1.5-3.2 1.1-4.1.2-3.4-3.2.3-1.8.1-3-.5-3-.5 0-1.2-1.6-1.4-3.5-.3-2.7 0-3.6 1.4-4.1 1.3-.4 1.8-1.5 1.8-4.2 0-2.9-.3-3.4-1.1-2.2-.8 1.1-.9.8-.4-1.3.4-2.1.2-2.8-.7-2.5-.7.3-1.4 1.7-1.6 3.1-.3 2.7-1.6 3.5-2.7 1.7-.3-.6-.1-1 .5-1s.9-.4.6-.9c-.3-.4-1.7-.6-3.1-.3-2.1.3-2.5 0-2.5-1.8 0-1.2.8-3.5 1.7-5.1 1.6-2.7 1.6-2.9-.3-5l-1.9-2.2 2.7 1.7c1.7 1.1 2.8 1.3 3.3.7.7-1.2-4.2-3.4-5.5-2.6-1.7 1.1-2.4 7.7-.9 8.6.8.5 1 .9.4 1-6.8.9-6.5 1-6.5-3 0-2.1.9-8 2-13.2 1-5.2 2.2-14.1 2.5-19.9.4-5.8 1-13.9 1.5-18 .8-6.5.7-7.7-.7-8.8-1.6-1.1-1.6-1.2 0-1.2 2.6 0 3.2-4.5 1.1-7.8-2.2-3.2-3.8-6-4.7-8.5-.5-1.5-.4-1.6 1.3-.7 2.6 1.4 6 1.3 6-.3 0-.6-1.1-2.5-2.5-4.1-1.4-1.6-2.5-3.7-2.5-4.7s-.4-2.1-1-2.4c-1.6-1-1.2-3.5.6-3.5 1.2 0 1.5-.6 1-2.8-.6-2.5-.5-2.6.8-.9.8 1.1 1.2 2.5.9 3.3-.9 2.3 7.1 2.2 9.4-.2 2-1.9 3.3-1.8 3.3.5 0 1 .6 2.1 1.4 2.4 1.1.4 1.3-.1 1-2-.3-1.4-1-3.5-1.6-4.6-.9-1.7-.8-1.9.7-1.3 1.5.5 1.6.4.6-.8-1-1.1-.9-1.5.6-1.8 1-.2 2.1 0 2.4.5.4.5 1.2.7 1.8.3zM338 251c0 1.1-.4 2-.9 2-.7 0-.8-1.7-.2-3.8.4-1 1.1.2 1.1 1.8zm15-1c0 .5-.2 1-.4 1-.3 0-.8-.5-1.1-1-.3-.6-.1-1 .4-1 .6 0 1.1.4 1.1 1zm-17.5 6c-.3.5-1.3 1-2.1 1s-1.4-.5-1.4-1c0-.6.9-1 2.1-1 1.1 0 1.7.4 1.4 1zm-10.8 12.2c-.3.7-.5.2-.5-1.2s.2-1.9.5-1.3c.2.7.2 1.9 0 2.5zm37 12.5c-.3 1-.5.2-.5-1.7s.2-2.7.5-1.8c.2 1 .2 2.6 0 3.5zm4.8 18.8c1.6 1.2 5 39.8 4.1 45.7-.9 5.6-3.3 9.8-5.6 9.8-2.9 0-3-1-1-8.5 1.8-6.4 1.9-8.4.9-22.5-.5-8.5-1.4-19.6-1.9-24.5-1.2-11.4-1.1-12.1.7-6 .9 2.7 2.1 5.4 2.8 6zm-17.1 3.1c1.1 2.8.6 3.9-.9 2-.8-1.1-1.5-2.3-1.5-2.8 0-1.4 1.8-.9 2.4.8zM316.7 344c1.1 0 1.4.7 1 2.2-.4 1.3-.9 4.1-1.2 6.3-.6 3.4-1 4-3.1 4-1.9 0-2.4-.5-2.4-2.6 0-3.6 3.3-13.8 3.7-11.7.3 1 1.1 1.8 2 1.8zm-19.8 14c0 .9-.4.8-.9-.5-.5-1.1-.9-2.7-.9-3.5 0-.9.4-.8.9.5.5 1.1.9 2.7.9 3.5zm29.4-2.3c-.7.2-1.9.2-2.5 0-.7-.3-.2-.5 1.2-.5s1.9.2 1.3.5z"/><path d="M346.3 253.4c-1.3 2.3-.5 5.6 1.3 5.6 1.5 0 1.7-2.3.5-5.5-.7-1.8-.8-1.8-1.8-.1zM347 260.8c0 .5.7 1.3 1.6 1.6 1 .4 1.4.1 1.2-.6-.5-1.5-2.8-2.3-2.8-1zM340.1 262.3c-.8 1-.7 1.4.4 1.4.8 0 1.6-.6 1.9-1.4.3-.7.2-1.3-.3-1.3s-1.4.6-2 1.3zM327 262.8c0 1 2.2 3.2 3.2 3.2 1.5 0 .8-2.8-.8-3.4-2.1-.8-2.4-.8-2.4.2zM337.5 269c-.3.5-1.7 1-3.1 1-1.4 0-2.4.6-2.4 1.4 0 1.8 4.3 3.3 4.8 1.7.2-.6.8-.9 1.3-.6.5.4.8-.5.7-1.9-.3-2.9-.4-3.1-1.3-1.6zM340.7 270c-.3 1.1-.1 2 .4 2s.9-.9.9-2-.2-2-.4-2-.6.9-.9 2zM348.2 271c1.3 2 2.8 2.7 2.8 1.2 0-1-2.2-3.2-3.2-3.2-.5 0-.3.9.4 2zM346 272.5c0 .8.4 1.5 1 1.5.5 0 .7-.7.4-1.5-.4-.8-.8-1.5-1-1.5-.2 0-.4.7-.4 1.5zM327 275c.8.5 2.2 1 3 1 1.3 0 1.3-.1 0-1-.8-.5-2.2-1-3-1-1.3 0-1.3.1 0 1zM332.5 276c-.3.5.3 1 1.4 1 1.2 0 2.1-.5 2.1-1 0-.6-.6-1-1.4-1-.8 0-1.8.4-2.1 1zM347.1 275.9c-1.9 1.2-.6 4.1 1.9 4.1 2.3 0 2.5-.9.8-3.3-.9-1.1-1.8-1.4-2.7-.8zM327.5 278c.3.5 1.1 1 1.6 1 .6 0 .7-.5.4-1-.3-.6-1.1-1-1.6-1-.6 0-.7.4-.4 1zM341.1 281.6c0 1.1.3 1.4.6.6.3-.7.2-1.6-.1-1.9-.3-.4-.6.2-.5 1.3zM334.8 284c-1.5.4-3 .5-3.5.1-.4-.3-.1.3.7 1.3 1 1.3 1 1.7.3 1.2-.7-.4-1.3-.3-1.3.2 0 1.4 2.6 2.2 6.6 2.2 3.7 0 4.3 1 1.9 3.3-1.2 1.3-1.2 1.6-.1 2 1.9.7 3.3-7 1.7-8.6-.8-.8-1.1-.7-1.1.3 0 1.3-.1 1.3-.9 0-.6-.8-.7-1.8-.5-2.2.6-.9-.2-.9-3.8.2zM345.4 286.2c.2 1.8 1.1 2.4 3.5 2.6 2.9.3 3.1.2 2.2-1.6-1-1.9-3.2-3.2-5.2-3.2-.5 0-.7 1-.5 2.2z"/><path d="M333 291c0 .5.5 1 1 1 .6 0 1-.5 1-1 0-.6-.4-1-1-1-.5 0-1 .4-1 1zM332 294.6c0 .8.5 1.2 1 .9.6-.3 1-1 1-1.6 0-.5-.4-.9-1-.9-.5 0-1 .7-1 1.6zM346 295c0 .5 1 1.5 2.3 2.1 2.2 1.2 2.2 1.2.3-1-2.1-2.3-2.6-2.6-2.6-1.1zM336.2 295.7c-.6.2-1 .9-.6 1.4.3.5-.2.9-1 .9-.9 0-1.6.4-1.6.8s1.6.6 3.5.4c3-.4 3.3-.6 2.4-2.3-.5-1-1.1-1.9-1.2-1.8-.1 0-.8.3-1.5.6zM329.2 304.5c0 1.6.2 2.2.5 1.2.2-.9.2-2.3 0-3-.3-.6-.5.1-.5 1.8zM328.5 311.1c-.4.6-.5 1.2-.2 1.5.2.3.7-.2 1-1.1.7-1.7.1-2-.8-.4zM345 311.3c0 .8 1.1 1.9 2.5 2.5 2.8 1.3 3.1.6 1.1-2.1-1.6-2-3.6-2.3-3.6-.4zM327.5 316c-.3.5-.1 1 .4 1 .6 0 1.1-.5 1.1-1 0-.6-.2-1-.4-1-.3 0-.8.4-1.1 1zM327.7 325.7c-.4.3-.7 1.1-.7 1.7 0 .6.5.5 1.2-.2.6-.6.9-1.4.7-1.7-.3-.3-.9-.2-1.2.2zM345 327.2c.1 1.8 3.7 6.4 4.5 5.7.7-.7-2.7-6.9-3.7-6.9-.5 0-.8.6-.8 1.2zM340 332.9c0 .5.5 1.3 1 1.6.6.3 1 .2 1-.4 0-.5-.4-1.3-1-1.6-.5-.3-1-.2-1 .4zM344.5 337.3c.4 1.8 1.3 3.9 2.1 4.7 1.2 1.2 1.4.9 1.4-2.7 0-3.3-.4-4.2-2.1-4.6-1.8-.5-2-.2-1.4 2.6zM340 339c0 1.4-.9 3.8-1.9 5.4-1.1 1.6-1.8 3.7-1.6 4.7.3 1.2-.1 1.6-1.1 1.2-.8-.3-1.4.1-1.4 1 0 1.7 2.1 1.7 4.2-.1 1-.8 1.8-.8 2.5-.1 1.5 1.5 2.8-4.5 1.4-6.8-1-1.7-1-1.7-1.1-.1 0 1-.7 1.8-1.5 1.8-1.2 0-1.1-.6.5-3.3 1.3-2.2 1.6-3.7 1-4.7-.8-1.2-1-1-1 1zM334 340c-1.9 1.1-3 1.9-2.3 2 .6 0 1.8.3 2.6.6 1 .3 2-.3 2.7-1.6 1.6-3 1.1-3.1-3-1zM349.8 340.6c-1.2 1.1-1 5.2.3 5.9 1.7 1.1 2.3-.3 1.3-3.6-.5-1.7-1.2-2.7-1.6-2.3zM344.4 347.1c0 2.1.3 3.6.8 3.1 1.5-1.5 1.7-5 .4-6.1-.9-.7-1.2 0-1.2 3zM347.6 349.5c-.9 2.6-.7 3.5.8 3.5 2.3 0 3-2 1.4-3.7-1.4-1.3-1.6-1.3-2.2.2zM344.4 356.1c0 1.1.5 1.8 1 1.6 1.6-.5 1.8-2.4.4-3-.9-.3-1.4.3-1.4 1.4zM470.2 158l.5 158-2.2 1.4c-1.8 1.2-2.3 2.7-2.8 9.2-.4 4.7-1.3 8.4-2.2 9.4-1.2 1.4-1.4 3.8-.8 13.8.5 10.8.4 12.2-1 12.2-2.1 0-4 3.6-3.4 6.1.4 1.4-.3 2.4-2.2 3.4-3.5 1.7-8.7 7.6-9.6 10.7-.4 1.3-1.3 3-2.1 3.8-1.5 1.8-1.6 8-.4 34 .4 9.6 1.2 19.3 1.8 21.5 1.4 4.9 1.5 12.5.3 15.8-.5 1.4-.7 6.9-.4 12.3.5 8.5.9 10.1 3 12.2 3.3 3.3 2.9 5.8-1.9 11.2-4.9 5.4-10.5 17.7-11.9 25.9-1.1 7.1-.1 84.3 1.2 93 1.1 7.1 3.2 11.7 7.7 17.4 3.8 4.7 10.1 9.9 11.3 9.1.5-.3.9-.1.9.4 0 1.6 7.1 4.2 14.5 5.4 14.4 2.2 27.2-2 36.8-12.1 6.4-6.8 9.5-12.8 10.9-21.7 1.4-8-.5-84.4-2.3-94-1.4-7.7-6.2-16.7-12.1-22.7-4.7-4.7-6.5-9.7-3.4-9.7s4.7-8.3 5.1-26.7c.4-24.2 1.3-32.6 3.2-31.9.8.3 5.7.6 10.9.6 9 0 9.5.1 10.5 2.4 1.1 2.3 1.5 2.4 6.8 1.9 3.1-.3 5.9-1.1 6.3-1.7 1.4-2.1 2-9.5 1.1-13.3-.8-3.6-1.1-3.9-6.3-4.9-5.7-1.1-8-.5-8 2.2 0 1.1-2.2 1.4-10.4 1.4-5.7 0-11.1.2-11.9.6-1.9.7-3.2-8.7-1.3-9.8.9-.5 1.2-3.2 1-8.5-.2-6.4-.8-8.9-3.3-14.1-3-6.1-3.9-6.9-13.6-12.7-1.3-.8-1.6-2.8-1.6-11.5 0-5.8.5-12 1-13.9.8-2.7.7-4.1-.4-6.5-.8-1.6-1.8-6.1-2.1-10-.7-7.9-1.7-10.6-3.9-10.6-.9 0-1.5-1-1.6-2.8 0-1.5-.2-3.6-.5-4.7-.2-1.1-.7-65.7-.9-143.5-.3-77.8-.8-147-1.1-153.8L478.8 0h-9l.4 158zm22.9 230.7c.7 1 .9 1.5.5 1.1-.5-.4-1.5-.3-2.3.3-1 .9-1.3.8-1.3-.3 0-1.3.9-2.8 1.5-2.8.2 0 .9.8 1.6 1.7zm-.5 40.8c-.3.9-1.1 1.3-1.6 1-.8-.5-.7-1.1.1-2.1 1.4-1.8 2.4-1.1 1.5 1.1zm-.9 7.1c-.3.3-1.2.4-1.9.1-.8-.3-.5-.6.6-.6 1.1-.1 1.7.2 1.3.5zm-20.9 45.2c.2 1.5-.2 2.2-1.2 2.2-.9 0-1.6-.4-1.6-.9s-.3-1.7-.6-2.6c-.5-1.3-.2-1.6 1.2-1.3 1.1.2 2 1.3 2.2 2.6zm18 .4c1.8 1.8 1.4 2.8-1.2 2.8-1.9 0-2.3-.4-1.9-2 .6-2.3 1.4-2.5 3.1-.8zm-13.3 11.6c-.3.3-1.1 0-1.8-.7-.9-1-.8-1.1.6-.5 1 .3 1.5.9 1.2 1.2zm7.6 5.9c0 4.3.2 8.8.5 10 .3 1.9 0 2.1-2.6 1.7-2.1-.4-3.6.1-5.1 1.5-2 1.8-2.4 1.9-5 .5-2.9-1.5-4.1-5.3-1.6-5.5 1 0 1-.2 0-.6-2.1-.8-1.4-2.5.7-1.8 2.4.8 2.5.2.4-2-2.5-2.4-.1-4.3 6.1-4.7 4.9-.3 5-.4 5-3.6-.1-1.7.3-3.2.7-3.2.4 0 .8 3.5.9 7.7zm6.4 11.4c1.1 1.6.1 1.9-1.3.3-.7-.8-.8-1.4-.3-1.4s1.3.5 1.6 1.1zm-18.9 7.2c.6.8.3.8-.9-.1-1.4-1.2-1.7-1.1-2.1 1-.9 4.3-1.5 9.3-.9 8 .8-2 2-1.4 2 1 .1 13.7.3 14.7 2.3 15.3 1.1.4 1.9.9 1.6 1.3-.2.4 0 1.6.5 2.7.6 1.7.8 1.6.9-1l.2-3 .7 3 .7 3 .8-3.3c.8-3.6 2-4.1 3.5-1.5.8 1.6 1.1 1.5 2-1 .6-1.6 1.1-5.6 1.2-9 .1-5.7.2-5.9 1-2.8 1.4 4.7 2 3.4.8-1.8-.9-3.9-.7-4.6 1.2-6.4l2.2-2.1-.6 7.5c-.4 4.1-.9 8.4-1.1 9.7-.3 1.5.1 2.6 1.5 3.5 1 .6 1.9 2 1.9 3s-.4 1.6-.8 1.3c-1.4-.8-1.2 5.7.1 7.3 1 1.2.9 1.3-.3.6-1.2-.7-1.3-.6-.3.7.7.8 1 1.7.7 2.1-.3.3.4.8 1.5 1.2 1.2.3 1.9 1.1 1.6 1.6-.4.5-.1.9.4.9.6 0 1.1-1.1 1.1-2.5 0-1.8-.4-2.3-1.5-1.9-1 .4-1.5 0-1.5-1.5 0-1.2.5-2.1 1.1-2.1.5 0 .7.4.4 1-.3.6.1.7.9.4 1.7-.6 1.8-.4 1.8 5.1 0 6.2-.1 6.7-1.4 5.9-.9-.6-.9-.3 0 .9.8.9 1.6 5.1 1.8 9.9.2 4.6.1 7.6-.3 6.8-1-1.9-3.3-2.4-3.4-.8-.1.7-.2 3-.3 5.1 0 2.1-.7 4.1-1.5 4.6-.9.6-1 1.1-.2 1.5.6.4 1.1.2 1.1-.3 0-.6.6-1.1 1.4-1.1 1 0 1.2.7.8 2.2-.5 1.9-.4 2 1 .7.9-.7 1.4-1.7 1.2-2.1-.2-.4 0-.9.5-1.3.6-.3 1-5.2 1-10.8 0-49.1.2-63 1-62.2 2.2 2.3 3.1 15.9 3.1 49.6 0 35.1-.7 44.3-3.2 40.7-.7-.9-.8-.7-.5.9.3 1.3.2 2.5-.2 2.8-1.1.6-1.3-3.3-.8-11.9.1-1.6-.4-3.1-1-3.3-.8-.3-1.3.5-1.3 2 0 1.3-.7 3-1.5 3.7-1.2 1-1.3 1.6-.4 2.7.7.7.9 1.6.5 2-.3.3-.6.2-.6-.4 0-.5-.6-1-1.4-1-.8 0-1.4.3-1.3.6.1.3-.2 2.1-.6 3.8-.6 2.8-1.1 3.3-3.7 3.3-1.9 0-3 .5-3 1.4 0 1.1.9 1.3 3.3 1 2-.4 3.9 0 5.2 1 1.8 1.4 1.4 1.5-5.6 1.2-8.7-.3-11.5.4-12.4 3.4-1 3 .1 3.6 2.5 1.5 1.6-1.5 2.3-1.6 3.3-.6s.8 1.2-.8.9c-1.5-.2-2.1.4-2.5 2.7-.4 2-.8 2.6-1.3 1.7-.5-.7-1.2-1-1.6-.8-.4.3-1.8-.8-3-2.5l-2.2-3 2.1-2.9 2.1-2.9-3.9-1.2c-3.3-1-3.9-1.5-4-4.1-.1-3.1-2.3-8.8-3.4-8.8-.3 0-.8-.8-1-1.8-.3-.9-.5 1.4-.6 5.2-.1 3.8-.4 7.1-.5 7.3-.2.1-1.1-.3-1.9-1-1.4-1-1.7-4.8-2.2-24.2-1.2-43.5-.9-60 .9-64 1-1.9 2-3.3 2.4-3 .4.2.6 5.9.3 12.7l-.4 12.3 3.6-4c3.1-3.5 3.6-4.7 3.7-9.5.1-3 0-6.5-.1-7.8-.1-1.3.4-3 1.2-3.9.7-1 .8-1.4.1-1-.8.5-.8.1 0-1.7.9-1.9 1.6-2.2 2.9-1.5.9.5 2 1.5 2.4 2.2zm7.4-1.3c0 .5-.4 1-.9 1-.6 0-1.3-.5-1.6-1-.3-.6.1-1 .9-1 .9 0 1.6.4 1.6 1zm13.1.7c1.3 1.6 1.2 1.7-.3.4-1.7-1.3-2.2-2.1-1.4-2.1.2 0 1 .8 1.7 1.7zm-10.1 1.4c0-.8.3-1.2.6-.8 1 1-.6 2.6-2.1 2.1-.8-.4-1.2-1.1-.9-1.6.4-.6 1-.5 1.5.3.7 1.2.9 1.2.9 0zm-7.3 3.5c-.3.3-1.2.4-1.9.1-.8-.3-.5-.6.6-.6 1.1-.1 1.7.2 1.3.5zm-2.2 18.4c.3.5.1 1-.4 1-.6 0-1.1-.5-1.1-1 0-.6.2-1 .4-1 .3 0 .8.4 1.1 1zm9.5 2c0 .5-.2 1-.4 1-.3 0-.8-.5-1.1-1-.3-.6-.1-1 .4-1 .6 0 1.1.4 1.1 1zm3.8 80.2c1.7 1.7 1.5 4.8-.3 4.8-.8 0-1.5.6-1.5 1.2 0 .9-.4.8-1-.2-1.5-2.3-1.2-3 1.1-3 2.8 0 1.9-2.3-1.2-3.1-2.1-.6-2.1-.7-.3-.8 1.1-.1 2.5.4 3.2 1.1zm-5.6 4c-1.1 1.1-3.2.3-3.2-1.2 0-.4.9-.6 2.1-.3 1.3.4 1.7.9 1.1 1.5z"/><path d="M471.5 507.9c-.3.5-.1 1.2.5 1.6.5.3 1-.1 1-.9 0-1.8-.6-2.1-1.5-.7zM480.5 510c.3.5.8 1 1.1 1 .2 0 .4-.5.4-1 0-.6-.5-1-1.1-1-.5 0-.7.4-.4 1zM458.3 545.5c-1.7 1.8-1.6 3.5.2 5.9 1.4 1.8 1.5 1.6 1.5-2.7 0-5.2 0-5.2-1.7-3.2zM492 569.4c0 1.4.4 2.7 1 3.1.5.3.8-.7.7-2.5-.2-3.6-1.7-4.1-1.7-.6zM466.6 612.4c1.1.7 2.8 1.6 3.9 1.9 1.9.7 1.9.6.2-.7-1.3-1-1.5-1.5-.5-1.8.7-.3-.2-.5-2.1-.6-3-.1-3.2.1-1.5 1.2zM477 615.4c0 .2.9.6 2 .9 1.1.3 2 .1 2-.4s-.9-.9-2-.9-2 .2-2 .4zM470.1 619.6c-1.1 1.5-1.8 3-1.5 3.5 1 1.6 2.1.9 3.4-2 .6-1.7 1.9-3.2 2.8-3.4 1.2-.3 1.1-.5-.5-.6-1.2-.1-3 1-4.2 2.5zM592.4 18.5l.7 18.5-2.5.9c-2.1.9-2.5 1.9-3.6 9.8-.7 4.8-2 9.6-2.7 10.5-1.2 1.3-1.3 3.4-.6 11 .8 9.4.1 13.8-2.4 13.8-.7 0-2 1.1-2.8 2.4-1.3 2-1.4 2.9-.5 4.6.6 1.2 1 2.3.8 2.4-7.6 4.7-8.7 5.8-11.5 11.8-3.3 6.8-5.2 20.1-3.1 21.4.7.5.8 5.4.3 15.5-.5 10.6-.3 15.8.5 18.5.7 2 1.2 7.5 1.2 12.3 0 4.7-.1 13.1-.2 18.6-.1 12 .5 14.3 3.6 15.1 3.2.8 3.1 4.1-.3 10.7l-2.8 5.2.2 75.5c.2 49.9.7 77.4 1.4 81 .6 3 2.1 7.3 3.4 9.5 2.8 4.9 7.5 9.5 7.5 7.4 0-.8.9-.3 2.3 1.3 3.1 3.9 9.1 6.1 16.3 6.1 10.5.1 22.2-7.2 26.9-16.8 1.8-3.6 2-6.5 2.3-32 .1-15.4-.1-51.2-.6-79.5l-.8-51.5-2.7-6.4c-3.2-7.7-3.2-7.8-.6-10 1.7-1.3 2.2-3.3 2.9-11.3.4-5.3.6-14.3.3-20-.5-8.4-.3-11 1.1-13.5.9-1.8 1.6-5.5 1.6-8.4v-5.2l3.1.7c1.7.3 5.8.6 9 .6 5.7 0 6.4.3 9.2 4.2 1 1.5 1.9 1.5 6.7.6 3-.5 6-1.4 6.6-1.9.6-.5 1.2-4 1.3-7.8.2-8.3-.7-9.6-8-10.5-4.7-.6-5.5-.5-6.9 1.4-1.4 1.9-2.4 2.1-11.5 1.8l-9.9-.3-.8-4.5c-.5-2.7-.4-4.6.3-5 .5-.4 1.1-3.9 1.3-7.8.3-6.1-.1-7.9-2.3-12.4-4.4-8.6-5.9-10.4-11-13.2l-4.9-2.6-.4-6.8c-.2-3.7.2-10.3.9-14.7 1-6.6 1-8.3-.1-10-.8-1.2-1.6-5.8-2-10.4-.5-8.1-1.6-11.1-4.1-11.1-1.2 0-2.5-16.5-2.5-31.8V0h-10.3l.7 18.5zm1.6 64.7c0 2.8-.2 4.9-.5 4.6-.9-.9-1.3-9.8-.4-9.8.5 0 .9 2.3.9 5.2zm10.2.5c-.6 6.4-.9 6.4-1.3.4-.3-3.3 0-5.1.7-5.1.8 0 1 1.6.6 4.7zm8.9 29.6c-.7.7-.7 1.4 0 2.4.9 1 .8 1.3-.3 1.3s-1.5-1.2-1.5-4.5c0-4.3.1-4.4 1.5-2.4 1 1.5 1.1 2.4.3 3.2zM588 111c-2.8.8-3.5.6-2.6-.8.3-.6 1.6-.7 2.9-.4 2.2.6 2.2.6-.3 1.2zm.3 27.7c-.7.2-1.9.2-2.5 0-.7-.3-.2-.5 1.2-.5s1.9.2 1.3.5zm24.7 5.9c-.7.7-.9 1.4-.4 1.4s1 1.8 1.2 4.1c.2 2.9-.1 4-1 3.7-1.3-.5-2.9-5.3-2-6.3.3-.3.7-1.3.8-2.2.2-.9.6-2.8 1-4.2.8-2.6.8-2.6 1.2-.3.2 1.3-.2 3-.8 3.8zm-.4 16.2c-1 .2-2.2 0-2.8-.6-.6-.6 0-.7 1.9-.4 2.1.5 2.3.7.9 1zm.1 13.2c.1 1.1-.2 2-.8 2-1 0-1.2-2.3-.2-3.3.9-.9.9-1 1 1.3zm-23 1.6c-.3.3-1.2.4-1.9.1-.8-.3-.5-.6.6-.6 1.1-.1 1.7.2 1.3.5zm-.7 5.2c0 .4-.9.8-2 .9-1.1.1-1.8-.2-1.5-.8.7-1.1 3.5-1.2 3.5-.1zm24.3.9c-.7.2-2.1.2-3 0-1-.3-.4-.5 1.2-.5 1.7 0 2.4.2 1.8.5zm-24.2 5.2c-.8.5-2 .7-2.8.4-2.1-.8-1.5-1.3 1.5-1.3 2 0 2.3.3 1.3.9zm24 .4c-.6.8-.8 1.7-.4 2 .3.4.1.7-.5.7-.7 0-1.2-.6-1.2-1.4 0-.8-.6-1.7-1.2-1.9-.7-.3 0-.6 1.6-.6 2.3-.1 2.6.2 1.7 1.2zm-.1 5.8c0 .6-.4.7-1 .4-.5-.3-1-1.1-1-1.6 0-.6.5-.7 1-.4.6.3 1 1.1 1 1.6zm.3 2.6c-.7.2-1.9.2-2.5 0-.7-.3-.2-.5 1.2-.5s1.9.2 1.3.5zm-1.3 5.4c0 .6-.4.7-1 .4-.5-.3-1-1.1-1-1.6 0-.6.5-.7 1-.4.6.3 1 1.1 1 1.6zm-19.2 3.7c.3 1.9-.1 2.2-3.6 2.2-3.2 0-3.9-.4-3.8-1.8 0-.9 1.2-2 2.6-2.3 3.5-.9 4.5-.5 4.8 1.9zm12.8-.1c.8-1.3 1.8-1.6 4.2-1.1 3 .6 3.1.8 1.5 2.1-1 .8-1.2 1.2-.6.8.7-.3 2.1-.1 3 .4 1.4.8.9 1-2.5 1.1-4 0-4.3-.2-3.7-2.3.5-1.9.4-2-.5-.5-1.6 2.6-4 2.3-3.9-.5 0-2 .1-2.1.8-.2.7 1.8.8 1.8 1.7.2zM594 216.6c0 .8-.5 1.2-1 .9-.6-.4-.8-1.1-.5-1.6.9-1.4 1.5-1.1 1.5.7zm7.3-.1c-.3.9-.8 1.4-1 1.1-.3-.3-.2-.9.2-1.5.9-1.6 1.5-1.3.8.4zM585 219c0 .5-.5 1-1.1 1-.5 0-.7-.5-.4-1 .3-.6.8-1 1.1-1 .2 0 .4.4.4 1zm4.1 5.2c0 .7 0 9.4-.1 19.3-.1 17.6.3 22 2.1 21 .5-.3 1.1.7 1.5 2.2 1.9 8.6 2.9 8.5 3.1-.3.3-8.1 1.1-11.3 2.4-9.3 1 1.6 1.2.6 1-4.1-.1-2.3 0-2.3.8-.5.5 1.1 1 3.8 1 5.9.1 3 .4 3.7 1.2 2.9.7-.7 1-3.6.7-7.7-.6-9.4 1.4-7 2.7 3.3.2 1.8 1 4.1 1.8 5 .8.9 1.2 2.2 1 2.8-.3.7 0 1.3.6 1.3.8 0 1.1-6.8 1.1-21.7 0-19.1.2-21.4 1.4-19.7 1.2 1.5 1.5 6.7 1.6 25.8 0 13.1.3 24.3.6 24.8.4.6.6 22.3.6 48.2-.1 36.3-.4 47.9-1.4 50.2-1.1 2.6-1.3 1.1-1.6-12.1-.1-8.2-.7-15.4-1.2-15.9-.7-.7-1-.3-1 .9 0 1.6-.2 1.7-.9.6-.6-.9-1 3.9-1 12.7-.1 7.8-.4 14.9-.7 15.7-1.5 3.9-2.4.5-2.5-9.8-.1-6.1-.3-11.9-.4-12.7-.1-.8-.3-2.4-.4-3.5-.1-1.5-.3-1.7-1-.6-.5.7-1.4 1-2 .7-1.7-1.1-1.3.5.6 2.6.9 1 1.2 1.8.6 1.8-.5 0-1.6-1.1-2.3-2.5-1.1-2.1-1.9-2.5-4.2-2-3.1.7-3.6-.2-4.1-9.5-.2-3-.4 3.6-.5 14.7-.2 17.3-.4 20.3-1.7 20.3-1.2 0-1.5-2-1.6-11.8-.1-6.4-.3-15.8-.4-20.7-.1-5-.3-13.2-.3-18.3-.1-5-.6-9.2-1.1-9.2-.5 0-.8 11.7-.5 28.2.2 15.6.1 30-.2 32.1-1.2 7.6-2.3 2-2.5-12.8-.2-11.1-.6-15.6-1.7-17.3-.8-1.2-1.2-2.5-.8-2.9.3-.3.6-.1.6.5 0 .7.4 1.2 1 1.2.5 0 .8-1 .6-2.3-.3-1.2-.5-3.3-.7-4.7-.1-2.1-.3-1.9-1 1-.4 2-.5-1.8-.2-8.5.4-6.6.6-31.8.5-55.9-.2-24.1 0-44.7.4-45.8 1.4-4.6 2 .6 2.3 19.4.1 11.2.4 21.2.6 22.3.2 1.1.4 4 .4 6.4.1 2.4.3 4.2.6 3.9.8-.8 2.3-29.9 2.4-48.6.1-4.7.5-8.2 1.1-8.2.6 0 1 .6 1.1 1.2zm-17.4 84c-.2 1.3-.4.5-.4-1.7-.1-2.2.1-3.2.4-2.3.2 1 .2 2.8 0 4zm19.3 77.5c0 2.1-.3 2.4-.9 1.4-.5-.8-.7-2-.4-2.8.8-2.1 1.3-1.5 1.3 1.4zm8.2 3.7c.9 1.7.7 1.7-2.1-.3-1.7-1.2-3.1-3-3.1-3.8 0-1.4.3-1.3 2.1.3 1.1 1 2.5 2.7 3.1 3.8zm2.1 6.1c-.3.9-.8 1.4-1 1.1-.3-.3-.2-.9.2-1.5.9-1.6 1.5-1.3.8.4z"/><path d="M594.4 323c.1 3.6.5 5.9 1.1 5.7.5-.2.9-2.1.8-4.3-.1-2.1-.3-4.7-.3-5.7-.1-.9-.5-1.7-.9-1.7s-.7 2.7-.7 6zM599.5 327c-3.5 1.4-4.8 3.6-3.5 6 .6 1.2.9 2.8.6 3.6-.5 1.2 1.1 1.9 3.7 1.5.4 0 .7.7.7 1.6 0 1.3.4 1 1.4-.8 1.5-3 1.6-12.1.1-12.5-.6-.1-1.9.1-3 .6zM580.6 330.8c-.4 1.3-.5 2.6-.2 2.9 1 1.1 1.8-.4 1.4-2.9l-.4-2.3-.8 2.3zM607.2 334c0 1.4.2 1.9.5 1.2.2-.6.2-1.8 0-2.5-.3-.6-.5-.1-.5 1.3zM718.7 62.2c-.4 34.3-.7 93.4-.7 131.4 0 68.3 0 69.2-2 69.7-1.8.5-2 1.4-2 7.6 0 4.6-.4 7.1-1.1 7.1-.8 0-.9 1.7-.5 5.2.4 2.9.8 8.4 1.1 12.3l.4 7-4.4 2.8c-5.5 3.5-8.5 9.6-8.5 17.1 0 3 .4 5.7.8 6 .4.3.6 2.1.4 4l-.4 3.6H695c-4.8 0-7.1-.4-8-1.5-1.4-1.6-7.3-1.2-9.7.8-1.3 1-1.7 6.6-.7 10.3.7 2.8 8 4 10.5 1.8 1-.9 3.8-1.4 8-1.4h6.5l1.2 5.7c.7 3.2 1.4 12.1 1.7 19.8.4 10.1 1 14.3 1.9 15 1.8 1.4 2.3 4.6 1.1 6.5-.6 1-1.1 64-1.3 173.8-.3 189.6-.7 174.7 5.7 181.5 5.2 5.7 12.4 7.3 19.4 4.3 4.3-1.7 10.5-9.1 11.1-13 .3-1.7.7-82 1-178.4.4-157.8.6-175.5 2-176.5 1.2-.9 1.6-3.2 1.5-10.2V360c-.1-3 .1-14 .4-24.5.4-18.5.3-19.1-2.1-23.8-1.4-3-3.7-5.7-5.8-6.9-2.8-1.7-3.2-2.3-2.4-3.9 1.3-2.3-.3-5.9-2.5-5.9-2 0-2.9-4.2-2.1-10.5.4-3.8.2-6.1-.9-8.1-.8-1.6-1.5-3.9-1.5-5 0-4.4-1.3-8.4-2.9-8.9-1.5-.4-1.6-11.1-1.3-131.5l.3-131h-6.8l-.6 62.2zm7 234.5c-.3 1-.5.4-.5-1.2 0-1.7.2-2.4.5-1.8.2.7.2 2.1 0 3zm-7 2.5c-.2 1.3-.4.5-.4-1.7-.1-2.2.1-3.2.4-2.3.2 1 .2 2.8 0 4zm-4 28.3c0 .8-.6 1.5-1.3 1.5-.8 0-1.1-.6-.8-1.5.4-.8.9-1.5 1.3-1.5s.8.7.8 1.5zm-.5 16.2c.7.9.7 1.3 0 1.3-1.3 0-2.2-2.6-2.1-5.8.2-2.6.2-2.6.6.3.3 1.6.9 3.6 1.5 4.2zm1.5 36.9c-.3.3-1.2.4-1.9.1-.8-.3-.5-.6.6-.6 1.1-.1 1.7.2 1.3.5zm.3 2.4c0 .5-.2 1-.4 1-.3 0-.8-.5-1.1-1-.3-.6-.1-1 .4-1 .6 0 1.1.4 1.1 1zm15 3.5c0 .8-.4 1.5-1 1.5-.5 0-1-.7-1-1.5s.5-1.5 1-1.5c.6 0 1 .7 1 1.5zm-13 .2c-.1 1.8-1.8 3.5-2.4 2.4-.4-.6-.2-1.1.4-1.1.6 0 .8-.5.5-1-.3-.6-.1-1 .4-1 .6 0 1.1.3 1.1.7zm-1.5 36.7c0 78.8-.6 164.9-1.1 164.3-.7-.7-1.3-177.5-.6-187.2.9-13 1.7-2.7 1.7 22.9zm14 133.8c-.4 89.8-.7 165.1-.7 167.3.1 3.3-.1 3.6-.7 1.5-.6-2-.9-1.4-1.5 3.4-.4 3.3-1 6.5-1.3 7.3-.7 1.8-3.3 1.7-3.3-.2 0-.8.4-1.5.9-1.5 1.7 0 3.2-19.6 3-40-.1-11.3.1-27.5.3-36 .3-8.5.2-18.9-.2-23-1.4-13.1-2-21.2-2.2-31-.1-9-.2-9.2-.8-3.5-.4 3.8-.7-1.8-.8-15-.2-21.5-1.2-27.6-3-19.4-.7 3-1-16.9-1-64.9-.1-44.2.3-69 .9-68.7.6.4.9 19.7.9 50.8v58.1c0 4.4.3 7.6.6 7.3.4-.4.8-27.1.9-59.4.1-54.9.7-70.3 2.5-70.3 1.7 0 2.3 7.1 2.9 36l.7 30.5.2-45.5c.1-25 .2-45.8.2-46.3 0-.4.5-.7 1.1-.7.8 0 .9 43.7.4 163.2zm4.5-146.7c0 5.7-.4 9.5-1 9.5s-1-3.8-1-9.5.4-9.5 1-9.5 1 3.8 1 9.5zm-14 4.5c0 .5-.4 1-1 1-.5 0-1-.5-1-1 0-.6.5-1 1-1 .6 0 1 .4 1 1zm0 6c0 1.6-.4 3-1 3-1.1 0-1.4-4.3-.3-5.3 1.1-1.2 1.3-.8 1.3 2.3zm-1.3 154.7c-.3 1-.5.4-.5-1.2 0-1.7.2-2.4.5-1.8.2.7.2 2.1 0 3zm0 10.5c-.3.8-.6.5-.6-.6-.1-1.1.2-1.7.5-1.3.3.3.4 1.2.1 1.9zm-4 16.5c-.2 1.6-.4.3-.4-2.7s.2-4.3.4-2.8c.2 1.6.2 4 0 5.5zm7 24.5c-.2 1.3-.4.5-.4-1.7-.1-2.2.1-3.2.4-2.3.2 1 .2 2.8 0 4zm-1 12c-.2 1.3-.4.3-.4-2.2s.2-3.5.4-2.3c.2 1.3.2 3.3 0 4.5zm0 23c-.3.8-.6.5-.6-.6-.1-1.1.2-1.7.5-1.3.3.3.4 1.2.1 1.9zm1 13c-.3.8-.6.5-.6-.6-.1-1.1.2-1.7.5-1.3.3.3.4 1.2.1 1.9zm0 17.5c-.3 1-.5.4-.5-1.2 0-1.7.2-2.4.5-1.8.2.7.2 2.1 0 3zm0 28c-.3 1-.5.4-.5-1.2 0-1.7.2-2.4.5-1.8.2.7.2 2.1 0 3zm-6 10.5c-.3.7-.5.2-.5-1.2s.2-1.9.5-1.3c.2.7.2 1.9 0 2.5zm20.6-1.6c.9 1-1.5 5.4-3 5.4-.8 0-1.1.4-.8 1 .3.5.1 1-.4 1-.6 0-1.1-1.8-1.1-4 0-3.5.3-4 2.3-4 1.3 0 2.6.3 3 .6z"/><path d="M725.6 469.8c-.2.4-.3 12.4-.2 26.7.2 14.3.4 37.6.4 51.8.1 14.2.5 25.6 1 25.3.4-.2.7-6.4.6-13.8-.1-7.3-.3-30.7-.4-52.1-.1-21.3-.4-38.7-.5-38.7-.2 0-.6.3-.9.8zM728.2 537.5c0 1.6.2 2.2.5 1.2.2-.9.2-2.3 0-3-.3-.6-.5.1-.5 1.8zM721.3 556.5c0 3.3.2 4.5.4 2.7.2-1.8.2-4.5 0-6s-.4 0-.4 3.3zM197.8 169.2c-.2 92.6-.3 183.4-.3 201.9v33.7l-2.6 1.5c-2.4 1.3-2.8 2.3-3.4 8.8-.4 4-1.4 8.4-2.3 9.7-1.1 1.8-1.3 3.9-.8 9.6.4 4.1.4 9.2 0 11.4-.6 3.9-.7 4-4 3.5-2.9-.5-3.4-.3-4 2.1-.3 1.4-.4 3.6-.1 4.7.4 1.5-.2 2.8-2.3 4.6-1.6 1.3-4.2 4.9-5.9 7.9-3.4 6.3-3.6 9.1-2.7 37.9.6 18.7.8 31.9.6 46.9-.1 7.4.3 10.4 1.5 12.2.8 1.3 2 2.4 2.5 2.4 1.6 0 1.1 3-.9 6.4-1.1 1.7-3 6.7-4.2 11.1-3.6 13.5-6.3 17.6-21.5 33.6-7.7 8.1-10.1 11.4-14.3 20-6.7 13.6-8.5 21.9-7.8 36.4 1.1 20.7 6.6 33.8 20.9 49.6 6.8 7.5 20.7 15.4 33.5 19.1 6.2 1.8 10.3 2.2 20.3 2.2 11 0 13.5-.4 20.5-2.8 19.5-6.7 35.8-21.1 44-39 5.2-11.1 6.5-17.7 6.5-32.2 0-21.2-4.4-33.9-16.3-47.4-3.7-4.1-10-11.2-14-15.7-7.6-8.7-11.8-16.9-13.1-26.4-.4-2.6-1.3-5.5-2-6.5-1.5-2-1.1-7.9.7-10.2.5-.6.6-1.2.2-1.2-.4 0-.2-.7.5-1.5.9-1.1 1.2-6.5 1.2-19.7-.1-10.2.3-18.7.8-19.4.6-.6 1.1-3 1.2-5.4l.1-4.2 3.6.6c2 .3 4.4.6 5.3.6.9 0 3 1.3 4.5 3 2.7 2.8 3.1 2.9 8.7 2.3 5.7-.6 5.9-.7 7.7-4.7 3.7-8.1 2.2-11.8-5.7-14.3-4.4-1.4-5.9-1.5-7.2-.5-3.2 2.3-4.2 2.4-10.8 1.7l-6.5-.7.7-13.1c.6-13.2.6-13.2-2.4-19.9-2.6-5.6-3.9-7.3-8.5-10.3-5.5-3.6-5.5-3.7-5.9-9.3-.3-5.4.3-11.5 1.8-19 .4-2.3.2-3.8-.8-5-.9-1-1.8-4.9-2.2-9.7-.5-6.9-.9-8.3-3.1-10l-2.5-2.1V1h-9l-.2 168.2zm.7 274.8c.3.5.1 1-.4 1-.6 0-1.1-.5-1.1-1 0-.6.2-1 .4-1 .3 0 .8.4 1.1 1zm10.5 1c0 .5-.4 1-1 1-.5 0-1-.5-1-1 0-.6.5-1 1-1 .6 0 1 .4 1 1zm-17.7 27.7c-.7.2-1.9.2-2.5 0-.7-.3-.2-.5 1.2-.5s1.9.2 1.3.5zM218 475c-3 .8-3.4.6-2.6-1.5.5-1.3.9-1.4 2.8-.4l2.3 1.3-2.5.6zm-25.5 10c.3.5.1 1-.4 1-.6 0-1.1-.5-1.1-1 0-.6.2-1 .4-1 .3 0 .8.4 1.1 1zm1.5 21.8c0 .4-.5 1.3-1.2 2-.9.9-.9 1.5 0 2.4 2 2 1.4 2.8-2 2.8-2.9 0-3-.1-1.6-1.8.9-.9 1.3-2.3 1-3.1-.2-.7.2-1.7.9-2.2 1.8-1.1 2.9-1.1 2.9-.1zm23.6 4.9c-.1 3.2-.4 3.7-2.1 3.5-2.5-.5-2.3-.1-1.8-4 .4-2.2 1.1-3.2 2.2-3.2 1.4 0 1.8.8 1.7 3.7zm-24.9 8.4c-1.4.8-2.2.8-3 0-.8-.8-.3-1.1 1.9-1.1 2.5.1 2.7.2 1.1 1.1zm24.8.9c.7 1.2-1.2 1.2-4 0-1.8-.8-1.7-.9.7-.9 1.5-.1 3 .3 3.3.9zM192 541c-.8.5-2.2 1-3 1-1.3 0-1.3-.1 0-1 .8-.5 2.2-1 3-1 1.3 0 1.3.1 0 1zm26 1c1.2.8 1 1-1 1-1.4 0-3.2-.5-4-1-1.2-.8-1-1 1-1 1.4 0 3.2.5 4 1zm-25.2 3.7c-1 .2-2.6.2-3.5 0-1-.3-.2-.5 1.7-.5s2.7.2 1.8.5zm24.5 1c-.7.2-2.1.2-3 0-1-.3-.4-.5 1.2-.5 1.7 0 2.4.2 1.8.5zm-23 16c-.7.2-2.1.2-3 0-1-.3-.4-.5 1.2-.5 1.7 0 2.4.2 1.8.5zm18.3 2.8c-.2 3.6-4.1 3.6-4.1 0 0-1.9.5-2.5 2.1-2.5 1.7 0 2.2.6 2 2.5zm-17.6.5c0 .5-.9 1-2.1 1-1.1 0-1.7-.5-1.4-1 .3-.6 1.3-1 2.1-1s1.4.4 1.4 1zm4.1 10.3c2-.6 2.5 1.1 1 3.5-1.1 1.9-1.5 1.9-3.4.4-.9-.8-2.1-1.1-2.7-.7-.5.3-1 .1-1-.4 0-.6.4-1.1.9-1.1s1.3-1 1.7-2.3c.6-1.7.9-1.8 1.1-.6.3 1.1 1.1 1.5 2.4 1.2zm7.4 1.5c-.4 3.6-1.8 7.2-2.7 7.2-.5 0-.6-.9-.3-2 .4-1.2.1-2.7-.5-3.5-1-1.2-1-1.8 0-2.9 1.5-1.9 3.7-1.1 3.5 1.2zm-5.6 8.6c-.5.6-1.6.2-2.8-1.1-2.5-2.7-1.5-3.7 1.4-1.5 1.5 1 2 2.1 1.4 2.6zm-8.2-2.8c-.3.3-1.2.4-1.9.1-.8-.3-.5-.6.6-.6 1.1-.1 1.7.2 1.3.5zm-8.6 7.4c-1 2.4-1 2.4-.7-.5.3-1.7.5-3.9.7-5 .1-1.5.3-1.4.6.5.2 1.4-.1 3.7-.6 5zm18.8-1.6c1 1.2.9 1.4-.6 1.1-1-.2-2.2-.4-2.8-.4-.5-.1-.3-.6.5-1.1 1.9-1.2 1.5-1.2 2.9.4zm-2.9 2.1c0 1.2-1.9 1.2-2.3 0-.4-.9-.1-1.2.9-.8.7.3 1.4.7 1.4.8zm8 .6c0 .6-.4.7-1 .4-.5-.3-1-1.1-1-1.6 0-.6.5-.7 1-.4.6.3 1 1.1 1 1.6zm-8.5 12.2c-.3 1.7-.1 3.3.5 3.7.6.4 1.2 4.4 1.3 9.3.1 4.9.6 8.7 1.2 8.8 9.4.5 16.5 2.2 16.5 3.8 0 1-3.4 3.6-5 3.8-4.9.5-6.6 1-8 2.3-2.8 2.5-1.2 3 2.5.9 3.5-2.1 4.9-1.6 1.8.6-1.1.8-1.3 1.4-.5 1.9.7.4 1.2.2 1.2-.3 0-.6.9-1.1 2-1.1 1.2 0 2 .7 2 1.6 0 1 .5 1.4 1.6 1 .8-.3 1.2-.2.9.4-.3.6-.1 1 .4 1 2.3 0 1 3.7-1.9 5.3-3 1.8-4.1 5.9-2 7.2.6.4.8 1.1.4 1.6-.3.5-.2.9.3.8 2.2-.4 3.3.3 3.3 1.8s.2 1.6.9.4c.8-1.2 1.1-.8 1.7 1.4 2.2 8.7-.9 28.4-4.3 27.1-.8-.3-1.1-.2-.8.3.3.5 0 1.1-.7 1.4-.7.2-.5.3.4.2 1.1-.2 1.5.2 1.1 1.1-.3.8 0 2 .6 2.8.8 1 .6 1.9-.9 3.8-1 1.4-1.7 2.8-1.4 3.1.3.3 0 .8-.7 1.3-.8.4-1 .3-.5-.4 1.7-2.8-.3-.8-3.8 3.8-3.8 4.9-6.7 6.9-4.7 3.1.9-1.6.8-1.8-.9-1.4-1.1.3-1.7.9-1.5 1.4.3.4 0 1.7-.7 2.8-2.7 4.4-16-.7-19.8-7.7-1.2-2-3-5.4-4.2-7.4-2.3-4-1.9-6.7 1.2-7.5 1.1-.3 1.7-.9 1.4-1.4-.3-.5-1-.6-1.6-.3-.8.5-.9.1-.4-1.1.7-1.9-2.6-5.9-3.9-4.7-.4.4-.5-4-.2-9.8.6-11.3 3.2-20.2 6.1-20.8 1.9-.4 2.2-2.4.4-2.1-3 .4-4.2-.1-3.1-1.2.6-.6.8-2.3.3-4.5-.5-1.9-.4-3.2.1-2.8.5.3.9-.3.9-1.2 0-1.4.3-1.5 1.1-.7.9.9 1.5.8 2.5-.2 1.6-1.5 1.8-3.5.5-3.5-.4 0-2-1.7-3.3-3.8-2.1-3.2-2.4-4.1-1.3-5.5.7-.9 1.7-1.7 2.3-1.7.7 0 2.9-.7 5.1-1.6 5.2-2.1 6.1-5.4 2.7-9.9-3-3.8-4.2-8-2.7-8.9.7-.5 1.1.2 1.1 1.5 0 2 .3 2.1 4.8 1.5 2.6-.3 4.2-.2 3.5.2-.9.5-.6 1.2 1 2.1 1.2.8 1.9 1 1.5.6-.4-.4-.3-1.6.3-2.6.5-1.1.6-1.9.1-1.9-.4 0-.8-.8-.8-1.9 0-1.1.5-1.7 1.3-1.4.8.3 1.1 1.6.8 3.6zm9.3-2.6c1.9 3.7 2.2 8.4.7 9-.9.3-2 1.4-2.6 2.6-1 1.8-.9 1.9 1 1.4 1.1-.3 2.1-.1 2.1.4s-1 .9-2.3.9c-1.3 0-2.8.5-3.5 1.2-.9.9-1.2.6-1.2-1.5 0-1.5.6-2.7 1.3-2.8 1 0 1-.2 0-.6-1.8-.7-1.6-2.1.5-2.6 1.3-.4 1.1-.5-.5-.6-1.3 0-2.3-.6-2.3-1.2 0-.5.8-.9 1.8-.8 4.2.4 4.9 0 4.4-3-.2-1.7-1.1-3.2-2.1-3.4-1.4-.4-1.4-.5.1-.6 1 0 2.1.7 2.6 1.6zm-13.1.6c-.4 1.4-7.7 2.1-7.7.8 0-.9 1.6-1.4 6.3-1.8 1-.1 1.7.3 1.4 1zm-6.1 12.4c-.7.7-2.6-.7-2.6-1.9 0-.6.6-.6 1.5.2.9.7 1.3 1.5 1.1 1.7zm31.4 17c-.1 1.8-1.8 3.5-2.4 2.4-.4-.6-.4-1.6-.1-2.1.7-1.2 2.5-1.3 2.5-.3zm-5.3 3.9c-.3.3-1.2.4-1.9.1-.8-.3-.5-.6.6-.6 1.1-.1 1.7.2 1.3.5zm26.3 26.9c0 4.1-1.8 11.6-4 17-1.1 2.7-1.3 2.8-1.9 1.1-.6-1.4-1-1.6-1.5-.7-.4.6-.6 1.8-.3 2.5.7 1.8-.8 4.2-1.7 2.7-.4-.6-.2-1.1.4-1.1.6 0 .4-.7-.5-1.7-1.2-1.2-1.5-2.5-1-4.7 1.8-8 3.5-18.4 3.5-21.4v-3.3l3.5 2.8c3 2.4 3.5 3.4 3.5 6.8zm-72-1.6c0 .5-.7 1.2-1.6 1.5-1.4.5-1.5.4-.4-.9 1.4-1.7 2-1.9 2-.6zm-3.8 4.8c1.4-.4 1.8-.1 1.4.8-.4 1.2-1.3 5.7-3.2 17.3-.5 3.2-.6 3.3-2.3 1.8-1-.9-2.3-1.6-2.9-1.6-2.6 0 0-16 3.2-19.9.9-1.2 1.2-1.1 1.4.3.3 1.2 1 1.6 2.4 1.3zm58.3-1.7c.3.6-.1.7-.9.4-1.8-.7-2.1-1.4-.7-1.4.6 0 1.3.4 1.6 1zm-87.1 17.9c.3 3.8.9 7.8 1.3 8.8.3 1 .3 1.5-.1 1.1-.9-.8-3.5-11.5-3.6-14.6 0-1.2.4-2.2.9-2.2.4 0 1.1 3.1 1.5 6.9zM177 684c0 .5-.2 1-.4 1-.3 0-.8-.5-1.1-1-.3-.6-.1-1 .4-1 .6 0 1.1.4 1.1 1z"/><path d="M193 618.1c0 .5.5.7 1 .4.6-.3 1-.8 1-1.1 0-.2-.4-.4-1-.4-.5 0-1 .5-1 1.1zM193.2 623.7c-.6.2-.9.9-.6 1.5.4.6 1 .5 1.6-.3.8-1.1.9-1 .4.3-.7 2.2 1 3.3 1.8 1.2 1-2.7-.3-3.9-3.2-2.7zM188.6 625.7c-.4.5-1.2.9-1.7.9-.5.1-1.3.2-1.9.3-.5 0-.2.9.8 1.9.9 1.1 2 1.7 2.5 1.5.4-.2.7.1.7.8 0 .7.3.9.6.6.4-.4.2-1.3-.4-2-.9-1-.8-1.4.3-1.4.8 0 1.2.4.9.9-.3.4 0 .8.5.8.6 0 1 .3 1 .7-.4 2.6.5 3.3 1 .8 1-4-2.1-8-4.3-5.8zM198.2 630c0 1.4.2 1.9.5 1.2.2-.6.2-1.8 0-2.5-.3-.6-.5-.1-.5 1.3zM204.5 635c.3.5.8 1 1.1 1 .2 0 .4-.5.4-1 0-.6-.5-1-1.1-1-.5 0-.7.4-.4 1zM201.7 635.6c-.4.4-.7 1.4-.7 2.3 0 1.1.3 1.2 1.1.4.6-.6 1-1.6.7-2.3-.2-.6-.7-.8-1.1-.4zM186.6 642.2c-.7 1-1.7 1.5-2.2 1-.4-.4-.2.1.5 1 1.7 2.3 4.1 2.3 4.1 0 0-1 .5-2.3 1-2.8.7-.7.6-1.1-.5-1.1-.9 0-2.2.9-2.9 1.9zm1.1 2c-.3.8-.6.5-.6-.6-.1-1.1.2-1.7.5-1.3.3.3.4 1.2.1 1.9zM198.2 643c0 1.9.2 2.7.5 1.7.2-.9.2-2.5 0-3.5-.3-.9-.5-.1-.5 1.8zM190 644.1c0 1.4.6 1.9 1.7 1.7 2.6-.5 2.8-3.3.3-3.5-1.4-.1-2 .4-2 1.8zM201 653.1c-.7 1.1-.9 2.3-.7 2.6.3.2.8-.5 1.2-1.6.3-1.2 1.1-1.8 1.7-1.5.7.4.8.2.4-.4-1-1.6-1.4-1.5-2.6.9zM207 651.9c0 .6.5 1.3 1 1.6.6.3 1-.1 1-.9 0-.9-.4-1.6-1-1.6-.5 0-1 .4-1 .9zM192.3 657.3c.4 1.2.1 1.7-1.1 1.7-.9 0-2.3.9-3 2.1-.8 1.2-.9 1.9-.4 1.5.5-.3 1.8.1 2.8.9 1 .8 2.2 1.5 2.6 1.5 1.2 0 .6-8-.5-8.7-.6-.4-.8 0-.4 1zm-.3 3.7c0 .5-.2 1-.4 1-.3 0-.8-.5-1.1-1-.3-.6-.1-1 .4-1 .6 0 1.1.4 1.1 1zM197.4 658.5c.4 2.4 1.6 3 1.6.7 0-1.2-.4-2.2-.9-2.2s-.8.7-.7 1.5zM201.6 661.9c-.4.7-.5 1.5-.2 1.8.9.9 1.9-.4 1.4-1.8-.4-1.1-.6-1.1-1.2 0zM211 665.8c-.8.3-1.8 1-2.2 1.6-.6.8-.8.8-.8-.1 0-1.3-2.6-1.1-4.1.4-1.4 1.4.6 2.8 2.4 1.6.6-.4 2-.6 2.9-.5 1 .2 2.4-.1 3.2-.5 1.9-1 .6-3.2-1.4-2.5zM184 669c-1.3.8-1.2 1 .3 1 .9 0 1.7-.5 1.7-1 0-1.2-.1-1.2-2 0zM211.6 671.5c.4.8.7 1.5.9 1.5.2 0 .5-.7.9-1.5.3-.9 0-1.5-.9-1.5s-1.2.6-.9 1.5zM189.6 673.9c-.3.5-1.5.7-2.5.4-1.5-.4-2 0-1.8 1.4.1 1.7.5 1.8 2.8.9 1.5-.5 2.6-1.3 2.3-1.7-.2-.4.4-1 1.3-1.2 1.6-.4 1.6-.5.1-.6-.9 0-1.9.3-2.2.8zM197.3 677c0 2.5.2 3.5.4 2.2.2-1.2.2-3.2 0-4.5-.2-1.2-.4-.2-.4 2.3zM190.7 680.6c.3.8 1 1.3 1.5 1.2 1.6-.6 1.4-2.1-.4-2.4-1.1-.1-1.5.3-1.1 1.2zM200.7 684.7c-.4.3-.7 1.3-.7 2.2.1 1.3.3 1.3 1.1-.2 1.1-1.9.8-3.3-.4-2zM209 685.7c0 1.3-.2 1.5-.8.5-.7-1-1.5-1-3.7-.2-3.1 1.2-2.9 1.8.6 2.6 4.9 1.1 5.4.9 5.7-1.9.2-1.5-.1-2.7-.7-2.7s-1.1.8-1.1 1.7zM193.6 688.7c-1.3 1.8-1.5 2.8-.7 3.6.8.8 1.1.6 1.1-.9 0-1.1.5-2.5 1.2-3.2.6-.6 1-1.4.7-1.6-.2-.2-1.2.7-2.3 2.1zM197.3 694c0 3 .2 4.3.4 2.7.2-1.5.2-3.9 0-5.5-.2-1.5-.4-.2-.4 2.8zM180.8 690.8c-2.4.5-2.4.6 2.1 5.3l3.9 4.2 2.5-2 2.5-2-2.8-1.6c-2.1-1.3-3.1-1.4-3.6-.6-.4.8-.3.9.4.5 1.8-1.1 1.4 0-.5 1.5-1.1 1-1.4 1-.9.1.4-.7.2-1.2-.5-1.2s-.4-.9.9-2.3l2.1-2.2-2.2-.1c-1.2 0-3 .1-3.9.4zm7.9 6.7c-1.5 1.6-1.9 1.3-1.1-.9.3-.9 1-1.3 1.5-1 .5.3.3 1.1-.4 1.9zM201.2 693c0 1.4.2 1.9.5 1.2.2-.6.2-1.8 0-2.5-.3-.6-.5-.1-.5 1.3zM189.4 692.9c.4.6 1.6 1.6 2.8 2.2 1.5.8 1.8.8 1.4 0-.4-.6-1.6-1.6-2.8-2.2-1.5-.8-1.8-.8-1.4 0zM203.3 696.5c0 .8.8 1.5 1.7 1.5.9 0 1.7-.7 1.7-1.5s-.8-1.5-1.7-1.5c-.9 0-1.7.7-1.7 1.5zM190.1 700.4c-2.9 3.4 10.5 6.2 13.7 2.9 1.6-1.5 1.6-1.6.1-1.1-.9.4-2.2.1-2.8-.5-.8-.8-1.1-.8-1.1.2 0 .8-1.1 1.1-3.2.9-2-.2-3.3-.8-3.3-1.7 0-2-2-2.4-3.4-.7z"/></svg>