<svg version="1" xmlns="http://www.w3.org/2000/svg" width="6666.667" height="6666.667" viewBox="0 0 5000.000000 5000.000000"><path d="M2506.1 92c-156.6 7.5-308.2 46.8-454.6 117.9-100.4 48.8-203.4 118.2-266.3 179.6-20.7 20.1-27.4 28.5-35.5 44.4-29.6 57.7-47 143.4-54.8 269.6-1.7 28-2.3 118.6-1 152.5 3.7 97.7 14.3 179.2 25.7 198.8 4.8 8.2 17.4 15 37 20l10.3 2.7 2.6 8.2c1.4 4.6 2.8 8.9 3.1 9.7.3.9-1.7 2.6-6 5-39.4 22-65 61.8-74.7 116.1-2.1 11.7-2.4 15.9-2.4 43 0 32.1.8 40.8 6.1 65.9 1.4 6.5 2.4 11.9 2.2 12-.2.2-138.2-43.7-306.8-97.3l-306.5-97.6-74.2-55.9-74.3-55.9-180.6-29.3c-99.4-16.2-181-29.2-181.2-28.9-.6.6-49.4 246.6-49 247 .2.2 73.2 31.3 162.3 69.1l162 68.7 81.4-3.2 81.5-3.2 461 162.3 460.9 162.3 2.6 4.4c18 30.8 37.1 51.6 60.2 65.5l7.3 4.4 6.3 23.8c22.8 85.9 45.2 148.1 62.4 173.6 17.3 25.6 86.5 79.5 166.4 129.7 13.2 8.2 24.8 15.6 25.9 16.3 1.5 1.2 2.3 5.7 5.3 32.2 1.9 16.9 3.2 31.1 2.9 31.4-.3.3-11.7-1.8-25.3-4.6-52.7-11-80.8-15.3-87.2-13.3-2 .6-10.3 4.6-18.4 9l-14.8 8-10.7-1.4c-32.1-4.2-80.3-6.6-93.2-4.6-5.4.8-10.3 2.5-17.5 6.1-28.1 13.9-87.6 59.5-154.3 118.3-10.1 8.9-19.8 17.3-21.5 18.7l-3.1 2.5.8-2.5c4.4-15.7 7.1-39.2 6.1-53-3.4-47.6-30-123.3-55.9-159-13-18-29.3-31.7-50.1-42.3-27.8-14.1-57.7-17.2-88.5-9.1-12 3.1-18.5 6.3-24.9 12-9.4 8.5-14.7 19.6-17.7 37.5-2.3 14.1-1.5 45.3 2.1 77.9 6.1 54.4 2.7 97.8-11 143.5l-2.4 8-9.3 1.3c-29.6 4-58.1 13.7-76.8 26-7.3 4.9-19.1 16.2-25.1 24-6.2 8.2-14 23.5-17.8 34.8-4.5 13.4-5.4 23.5-4.8 49.4.9 38 6.8 78.9 23.3 163l1.7 8.5-9 14c-22.4 34.9-42.1 68.1-58.6 98.7-42.9 79.4-63.7 137.8-63.7 179.3 0 13.2 1.2 21.4 4.7 31.5 13.1 38.2 42.7 62 85.3 68.5 12.4 1.9 40.9 1.9 57 0 24.7-2.9 50.2-8.5 74.7-16.3l12.2-3.9 3.2 4.5c5.3 7.4 14.5 17.3 23.2 25 13.6 12.1 31 19.5 57.7 24.4 15.7 2.9 59.2 3.2 84 .5 60.6-6.6 126.6-21.1 184-40.5 50.6-17.1 82-34.9 94.4-53.6 3.9-5.9 8.1-17.2 10-26.6 5.9-28.9-.9-64.2-19.5-100.8-3.2-6.4-5.9-12-5.9-12.4 0-.4 3.5-6.1 7.8-12.5 4.2-6.5 9.9-15.6 12.5-20.3l4.8-8.5 34.7-24.1 34.6-24.1 8 9.6c16.7 19.9 43.2 45.7 101.1 98.7 31.8 29.1 38.5 36.3 44 48 6 12.5 14.9 34 22.5 54.4 6.7 17.6 32 93.2 32 95.3 0 .7-2.6 2.8-5.7 4.6-3.2 1.9-9.1 5.8-13.1 8.8-9.9 7.3-10.5 8.9-10 26.4l.3 13.7-4.3.6c-15 2-23.8 12.2-24.9 28.5l-.6 7.6-13.1.2c-7.2.1-14.6.6-16.5 1-3.3.8-3.7.6-11.5-7.2-6.6-6.6-9.9-9-17.6-12.7-13.3-6.6-20.1-8.2-34-8.1-31.7.2-56.8 13.1-71.6 36.9-5.2 8.3-10.9 23.7-12 32-.5 4.7 1.5 134.3 3.2 197l.7 24.2 3.9.6c4.9.8 16 5.8 20.5 9.2 3.9 3 6.3 7.2 6.3 11.3 0 6.6-10.6 13.8-24.1 16.2l-6.9 1.2v59.4l4.4 4.1c2.4 2.2 6.1 5.2 8.3 6.6l4 2.7.6 12.1c.4 6.7.7 15.4.7 19.3 0 6.4.3 7.6 2.9 10.8 3.9 5 10.6 10.4 16.3 13.3l4.8 2.4v30.9c0 30.8 0 30.9-2.6 37.7-17 45.1-49.8 152.5-76.8 251.4-41.8 153.2-97.6 385-121 502-7.4 37.1-7.3 36.4-4.8 35.6 1.8-.6 1.7.1-1.4 13.1-12.4 51.2-23.2 116.3-26.8 161.3-5.9 73-3.7 131.8 6 163.9 11.2 37 37 62.6 87.9 87.2 56.9 27.5 130.9 45 211.5 50 23.8 1.5 87.3.6 111-1.5 75.3-6.9 140-22.8 183-45.2 17.5-9.1 16.8-8 25.9-41.4 14.7-53.8 22.4-94.9 22.5-119.5.1-13-.2-15-3.7-29-13.7-53.3-53.9-170.4-82.4-239.9l-8.6-20.8.7-10.3c2.5-39.4 18.9-144.4 34.2-220 27.3-134.2 53.2-226.5 88.2-314.1 12.2-30.5 45.1-105.9 45.8-105.1.1.1-.4 4-1.2 8.7-16.6 101.5-27.5 219.9-32.5 354-1.5 37.4-1.5 169.8-.1 199l1 20.5-3.4 12.5c-3.9 14.1-8.4 36-11 53-2.5 16-2.5 47.6-.1 57.5 3.8 15.2 11.8 26 21 28.3 13.5 3.4 47.5 5.5 159.2 9.7 79.7 3 103.4 4.1 127 6 40.6 3.3 91.5 6 164.5 8.7 46.4 1.8 221.4 1.8 248.5 0 38-2.5 61.1-5.4 72.3-9.3 22.6-7.8 48-40.1 60-76.6 5.7-16.9 7.6-28.2 7.5-44.3-.1-21.3-4.5-34.7-15.1-46.1-11.8-12.8-22.3-18-68.1-33.4-41.9-14.1-62.5-22-103.7-39.8-52.3-22.6-85.5-40.1-129.4-68.2-20.3-13-17.8-9.7-29.8-40-13.2-33-22.5-64-27.2-89.7-10.2-56.5-7.7-161.9 14-575.8 3.8-72.9 7.7-149.5 8.7-170.2l1.7-37.7 7.4-5.2c4.1-2.9 9.8-7.9 12.6-11 4.8-5.2 5.4-6.3 6-11.6 2.2-20.6 3-49.3 3-110.3l.1-67.5-2.2-4.2c-4.2-7.7-13.4-12.9-26.5-14.8-5.7-.9-5.3 2.4-3.3-29 6.9-109.3 9.9-199.3 9.3-276.6l-.4-55.6 28.5 7.4c122.9 31.7 198.2 49.4 256.3 60.3 25.3 4.7 30.7 4 43.8-5.8 10.3-7.8 42.7-39.8 69.5-68.7 33.9-36.5 92.5-102.9 128.9-146.1l6.9-8.2 23.1 7.9c12.7 4.3 59.3 20 103.6 34.9 44.3 15 93.1 31.4 108.5 36.6 39.4 13.3 70.3 20.6 108.3 25.4 16.1 2.1 34.5 2.6 38.5 1.1 1.6-.6 4.7-.4 9.3.5 22.3 4.8 66 6.9 92.1 4.5 65.9-6 126.2-30.1 181.3-72.7 14.3-11 45.7-42.2 57.4-56.9 44.4-55.9 70.6-119.1 79.2-191.5 2.1-17.6 2.4-57 .5-74-1.8-16-5.5-37.8-8.6-50.1-18.4-73.3-58.5-136.8-114.5-181.7-10.4-8.3-35.5-25.6-38.8-26.7-.9-.3-2.8-2.4-4.2-4.7-8.9-14.7-67.8-51.3-115.5-71.9-5.5-2.3-11.1-5.2-12.3-6.3-7.1-6.3-18.7-27.4-35.2-64.1-12.2-27.1-19.2-38.9-28.4-47.3-10.5-9.5-23.6-15.9-38.4-18.8-14.9-2.8-37.8-1.3-54.4 3.6-3.6 1.1-6.8 2-7.1 2-.3 0-.8-1.5-1.1-3.4-4.1-21.6-73.6-69.8-116-80.6-9.6-2.4-22.8-2.6-31.1-.5-10.8 2.8-23.7 9.8-31.2 16.8-1.8 1.7-3.4 2.9-3.6 2.6-.2-.2-1.2-5.6-2.1-11.9-2.1-13.8-4-19-9.9-27.2-6.4-9-23-24.6-33.9-31.8-19.1-12.6-44.4-23.2-67.8-28.1-8.7-1.9-13.8-2.3-29.5-2.3-19.3-.1-24.1.5-37.4 4.5-17.3 5.2-33.9 16.3-85.9 57.5-13.7 10.9-20.9 16-22.1 15.7-1.6-.4-1.9-2.4-2.5-17.9-1.6-40.7-7.5-72.4-18.4-97.8-21.5-50.4-52.2-74.6-94.7-74.6-18.9 0-29.1 3.6-39.3 13.8-12.1 12.2-20.7 28.6-35.6 68.6-7.4 19.7-12.2 31.9-14.2 35.8l-1.4 2.7-24.7-8.4c-13.7-4.6-47.7-16-75.8-25.5-28-9.4-54.9-18.5-59.7-20.2l-8.7-3 .5-28.7c.3-18.7 1-31.3 2-36.3 4.6-24.6 25.6-80.6 70.6-188.2 4.3-10.4 8.1-19.3 8.4-19.8.3-.5 1.2-.1 2 .9 1.3 1.7 1.6 1.6 5-2.2 9.1-10.2 57.1-115.7 79.9-175.5 2.6-6.9 5.1-13.5 5.6-14.7.8-2.2.8-2.2 9.4 1.8 93.5 43.2 208.8 81.2 279 91.9 17.7 2.8 57.7 3.8 74.7 2.1 39.8-4.2 66.7-15.4 85.5-35.5 13.2-14.1 17.7-26.3 17.6-47.1-.2-21-5.9-37.5-19.3-55.5-20.9-28-66.7-61.7-122.5-89.8-8.2-4.2-27.8-15-43.5-24.1-100.7-58-172.8-97.8-229.2-126.2-17.5-8.8-31.8-16.3-31.8-16.7 0-.4-.4-5.4-1-11.2-.5-5.8-2.6-35.9-4.5-67-10.7-171.1-19.7-254.7-33.5-311.5-8.4-34.8-13.8-46-29.8-62.7-54.2-56.2-184.1-128.1-313.7-173.6-104.7-36.8-207.7-58.1-314.5-65.2-21.4-1.4-83.9-2-104.9-1zm-47.1 994.6c30.6 4.5 60 13.5 88.6 27.3 14.3 6.9 16.8 8.6 13.9 9.7-1.3.5-1.3.9-.3 2.2.7.9.9 1.3.3 1-.6-.4-1 1.1-1.1 3.5 0 4.6-1.2 19.1-1.9 24.7-.3 1.9-1 8.5-1.5 14.7-.6 6.1-1.2 13.1-1.5 15.5-.2 2.4-.9 9.9-1.5 16.8-.5 6.9-1.4 16.3-2 21-.5 4.7-1.7 16.1-2.6 25.5-.8 9.3-2 21.5-2.6 27-1.4 13.5-1.5 14-1.6 21.8-.1 3.8-.5 6.6-.9 6.4-.5-.3-.8 1.6-.8 4.1 0 2.6-.3 6.6-.6 8.9-.3 2.4-.1 4.7.5 5.3.7.7.3 1-1.3 1-1.4 0-2-.4-1.5-1.2.4-.6.3-.8-.3-.5-.6.4-6.4-1.1-12.9-3.3-20.5-6.9-43.9-13.7-72.7-21.1l-3.9-1 8.6-4.3c29-14.6 49.9-42.5 56-74.6 2.2-11.3 2-29.2-.3-40.5-8.6-41.3-40.3-73.3-81.1-81.7-7.8-1.6-12.1-1.9-24.5-1.5-18.1.6-26.2 2.5-41.5 9.9-12.8 6.2-12.8 6.2-12.2 3 .5-2.3.6-2.4 1.2-.7.4 1 .5-1.1.4-4.8-.2-3.7 0-6.6.4-6.5.4.1 1.4-.2 2.2-.5.8-.3 4.2-1.3 7.6-2.1 28.1-7.1 63.5-9 91.4-5zM990.5 1105c1.2-.4 72.7 55.1 80.4 62.5 8.4 8.1 38.5 40.1 52.1 55.5 20.1 22.8 34.9 42.9 38.5 52.3 1.5 4.1 2.1 4.6 6.8 6 2.9.8 22.5 7.1 43.7 14 47.5 15.5 136.8 44.6 163 53.2 30.7 10 287.1 93.6 354.2 115.5 59.1 19.2 60.9 19.9 67.5 24.8 23.7 17.5 55.7 31.9 84.8 38.2 5.4 1.1 10.1 2.3 10.4 2.6.3.2 1.7 7.5 3.2 16.2 3.9 23.1 13.6 64.5 17.5 74.6.5 1.4.2 1.5-1.7.8-1.3-.5-3-.7-3.8-.4-.9.3-1.2 0-.9-1 .4-.9-.1-1.4-1.6-1.5-3-.2-6.2-1.2-32.1-10-12.6-4.3-23.1-8.1-23.3-8.6-.2-.4-1.5-.7-2.9-.7s-5.1-1.1-8.2-2.4c-3.1-1.4-14.4-5.4-25.1-8.9-18.3-6.1-29.9-10-34.5-11.8-1.1-.4-8.3-2.8-16-5.3-16-5.1-28.6-9.4-33-11.2-1.6-.6-6.8-2.4-11.5-3.9s-9.4-3.1-10.5-3.6c-1.1-.4-10.1-3.5-20-6.8s-23.2-7.8-29.5-10.1c-6.3-2.2-18.5-6.4-27-9.1-8.5-2.8-18.6-6.2-22.5-7.6-9.3-3.2-50.5-17.3-53-18-1.1-.4-3.1-1.2-4.5-2-1.4-.7-3.6-1.3-5-1.3-1.5 0-3-.4-3.5-.9-.6-.4-5.9-2.5-12-4.5-15.8-5.3-15.1-5.1-36.5-12.3-10.7-3.6-20-6.9-20.6-7.4-.6-.5-1.3-.6-1.7-.3-.3.3-1.8-.1-3.4-.9-1.5-.9-11.3-4.3-21.8-7.7-10.4-3.4-23.7-7.9-29.5-10-5.8-2.1-18.1-6.3-27.5-9.4-19.6-6.3-31.7-10.4-36-12.2-1.6-.6-7.9-2.8-14-4.8-6-2-12.3-4.1-14-4.6-1.6-.6-11.8-4.1-22.5-7.7-10.7-3.6-19.9-6.9-20.5-7.2-.5-.4-5.7-2.2-11.5-4-5.8-1.8-11.4-3.7-12.5-4.1-1.1-.5-5.8-2-10.5-3.5s-9.6-3.2-11-3.7c-2.7-1.1-41.2-14.1-44.5-15.1-3.3-.9-13.8-4.8-17.2-6.3-1.7-.8-4.2-1.4-5.5-1.4-1.3 0-2.8-.4-3.4-.9-.5-.5-6.1-2.6-12.4-4.6-6.3-2-12.7-4.3-14.2-5.1-1.4-.8-3.2-1.4-3.9-1.4-.7 0-4.9-1.3-9.3-2.8-4.5-1.6-10.8-3.7-14.1-4.7-3.3-1-8.3-2.9-11.2-4.1-2.8-1.2-5.4-2-5.7-1.7-.2.3-1.7-.2-3.3-1-1.5-.9-11.6-4.4-22.3-7.9-10.7-3.5-19.7-6.6-20-7-1.3-1.6-8.4-1.8-18.2-.4-7.5 1.1-11.6 1.3-13.4.6-1.7-.7-30-.5-83.7.5l-81.1 1.6-67.3-27.7c-54.7-22.5-67.3-28.1-67.3-29.6 0-1 .5-1.8 1.1-1.8.6 0 33.6 12.4 73.2 27.6l72.1 27.6 23.1-2.2c12.6-1.2 25.5-2.4 28.7-2.7 4.7-.5 5.7-.9 6.1-2.7 1-4.5 6.9-24.2 7.7-25.6.4-.9 1.1-3 1.5-4.9.4-1.8 1.3-4.4 2.1-5.9s1.4-3.7 1.4-4.9c0-1.2.9-4.2 2-6.8 1.1-2.6 2-5.7 2-6.9 0-1.3.3-2.6.7-3 1-1 3.3-7.9 3.3-10.1 0-1.1.7-3.3 1.5-4.8s1.7-4.3 2.1-6.3c.3-1.9 1-3.7 1.5-4 .5-.3.9-1.8.9-3.4 0-1.6.5-3.2 1-3.5.6-.3 1-1.6 1-2.7 0-1.2 1.1-5.3 2.4-9.2 1.3-3.9 3.1-9.8 4-13.1 1-3.3 2.1-6.9 2.6-8 .4-1.1 1.6-4.9 2.6-8.5.9-3.6 2.1-7 2.6-7.6.4-.6 1.2-3.1 1.8-5.5 1.6-7.4 4.2-16.3 5-17.4.5-.6 1.2-2.8 1.6-4.9.4-2.2 1.9-7.6 3.4-12 1.5-4.5 3.1-9.6 3.5-11.3.3-1.8 1.1-3.5 1.6-3.8.5-.4.9-1.6.9-2.8 0-1.2.7-4.1 1.5-6.5.9-2.4 1.3-4.7 1-5.2-.3-.5 0-1.2.6-1.6.8-.5.9-.3.4.6-.5.8-.4 1.1.2.7.6-.4.9-2.1.7-3.9-.2-2.1-.1-2.8.5-2 .4.8 1.2 1.3 1.6 1.2zm869.6 11.6c.6.3 2.8.8 4.8 1 8.3.6 41 12.4 36.9 13.2-1 .2-5-.3-9-1.2-22.3-4.6-48.4-1.6-76.3 8.9-20.1 7.5-37 17.1-46.8 26.4-20.1 19.1-30.5 44.4-33.8 82.1-3.3 38.3 5.3 96 22 148.7 2.1 6.8 3.7 12.3 3.5 12.3-1 0-12.8-25-17.7-37.5-11.3-28.8-19.8-64.7-20.1-85.2 0-4.6-.4-8.3-.8-8.3-1.9 0-.2-43.8 1.9-49 .3-.8.5-2.1.4-2.8-.4-2.3 5.7-25.3 8.9-33.7 15.8-40.9 50.1-68.6 93.7-75.5 6.3-1 30.5-.6 32.4.6zm593.7 35.8c3.6 1.9 7.8 6.5 9.1 9.9 1.7 4.5 1.3 14.7-.8 19.3-4.2 9.2-13.5 15.4-24.3 16.2-6.1.4-7.2.2-10.6-2.1-4.9-3.2-7.5-8.5-8-16.5-.4-5.2 0-7.1 2.2-11.7 4.8-9.8 14.9-16.3 25.4-16.4 2.4-.1 5.5.5 7 1.3zm502.2 98.5c11.3 2.7 23.9 6.1 28 7.6 11.9 4.4 28.3 13 33.5 17.8.6.5.9 4.8.7 9.6-.1 4.7-.6 34.7-1.2 66.5-.8 45.6-.7 58.3.3 59.5.9 1.2.9 1.3 0 .7-.9-.5-1.3.1-1.3 2.2 0 2.5-1.1 3.8-6.7 8-3.8 2.8-12.2 7.9-18.8 11.5-6.6 3.6-11.9 7-11.7 7.6.1.6-.2 1.1-.8 1.1-.5 0-.7.6-.4 1.3.5 1.5-61.8-19.1-63.8-21.1-.9-.9-.9-1.2.1-1.2 1.1 0 1.1-.3 0-1.7-1.2-1.5-1.2-1.6.4-1 .9.3 1.7.2 1.7-.3 0-.6.6-1 1.3-1 2.8 0 15.7-7.1 23.5-12.9 36.1-27.3 46.7-79.2 24.2-118.5-8.8-15.3-26-30.2-41.2-35.5-3.8-1.3-6.8-2.7-6.8-3.2 0-.4 3.9-1 8.8-1.2 4.8-.1 8.9-.4 9.2-.5.3-.1 9.7 2 21 4.7zm-746.2 19.1c151.2 17.2 268.8 41 371.5 75.4 25.7 8.6 47.1 16.5 46.5 17.2-.2.2-14.2-3-31.2-7.1-16.9-4.1-31.4-7.5-32.2-7.5-.9 0-1.2-.5-.8-1.2.4-.7.3-.8-.4-.4s-20.9-3.9-44.9-9.4c-63.8-14.8-92.8-20.9-148.8-31.6-57.4-10.9-163.5-31.4-180.5-34.8l-11.5-2.4 7.3-.1c3.9 0 15.2.8 25 1.9zm131.7 4c.3.5.1 1-.4 1-.6 0-1.1-.5-1.1-1 0-.6.2-1 .4-1 .3 0 .8.4 1.1 1zm574.9 23.6c7.5 5.1 7.6 18.2.2 26.2-6.9 7.7-21.8 8.3-25.7 1.1-4-7.5-2.8-15.4 3.2-22.3 6.1-6.9 16.2-9.2 22.3-5zm-34.9 129.3c.6.3 1.8.7 2.8.8 3.1.5 42.1 11.8 80.6 23.4 43.4 13.1 86.2 27.2 91.1 30 1.9 1.1 2.8 1.8 1.9 1.6-7.9-2.4-56-15.8-73.9-20.7-37.3-10.2-55.8-14.6-79.8-19.1l-23-4.3-3-6.8-3-6.8 2.6.6c1.5.4 3.2.9 3.7 1.3zm768.7 203.2c5.4 1 14 3.3 19 5 10.1 3.3 37.8 16.5 37.8 18 0 .5.5.9 1.1.9 2.1 0 14.4 9.8 21.5 17.2 9 9.4 10.9 12.6 13.4 22.9 2.4 10 2.4 10.9.6 8.4-.8-1.1-1.2-2.4-.9-3 .4-.5.3-.7-.2-.3-.4.4-5.6-3.9-11.5-9.6-14-13.5-19.4-17.5-32-23.5-27.9-13.3-62.9-22.1-88.1-22.1-13.4 0-20.1 1.2-48.4 8.6-3.3.9 14.2-10.2 24.5-15.5 11.1-5.7 17.4-7.9 26.2-9.1 8.7-1.2 25.4-.3 37 2.1zM2408 1632c0 1.1.7 2 1.5 2s1.5.9 1.5 2-.6 2-1.4 2c-1.5 0-3.2 3.7-2.2 4.7.3.4.6-.1.6-1s.5-1.9 1.1-2.3c.9-.5 1 1.6.4 8-.4 5.5-.3 8.6.3 8.6.8 0 2.9-15.1 2.4-17.3-.1-.4.3-.7.9-.7.8 0 .8-.5-.1-1.5-.8-1-.9-1.5-.2-1.5s.9-.7.5-1.7c-.5-1.2-.2-1.5.9-1 .9.3 13.3 3.5 27.5 7.1 81.9 20.6 193.2 42.9 272.8 54.6 47.9 7.1 144.4 24.7 177.3 32.4 6.5 1.5 10.2 4.3 7.9 5.9-.9.6-.8 1 .2 1.4 1.1.5 1.1.7 0 1.4s-1 .9.4.9 1.7-.5 1.2-2c-.5-1.7-.2-2 2.7-2 2.3 0 2.9.3 1.9.9-.7.5-1 1.4-.7 2 .4.6.3 1.1-.1 1.1-1 0-3.3 14.4-3.3 20.2 0 2-.4 3.9-.9 4.2-.5.3-1.1 3.2-1.3 6.3-.3 3.2-.9 6.6-1.3 7.5-.5 1.3-.3 1.8.9 1.8 1 0 1.6.8 1.6 2.2-.1 2.2-.1 2.3-1.5.4s-1.5-1.8-1.5 1.7c0 2-.4 3.7-.9 3.7s-1.4 4.6-2 10.2c-.7 5.7-1.9 13.9-2.8 18.3-.9 4.4-1.8 10.5-2.1 13.5-.2 3-.8 5.7-1.3 6-.5.3-1 2.7-1.1 5.2-.2 2.5-.6 4.4-1 4.1-.5-.2-1.3-.1-1.9.3-.8.5-.8.9.1 1.4.7.4.9 1.6.5 2.9-.3 1.2-1 1.9-1.5 1.6-.5-.3-1.2 0-1.7.8-.4.7-1.9 1.8-3.3 2.4-4.6 2.1.8 1.5 13.5-1.6 12.6-3.1 27.5-8 33.6-11.2 12.3-6.2 32.6-38.8 51.7-82.9l5.9-13.5 3.8.2c2.2.2 4.3.7 4.8 1.2 1.1 1.1-4.6 16.3-15.5 41.6-11.5 26.6-21.3 43.9-29.4 51.8-7.9 7.6-25.2 14.7-46.8 19.1-29.5 6.1-55.3 8-106.3 8.1-22.7 0-41 .1-40.5.2 9.6 2.5 45.9 6.9 69.2 8.3 18.1 1.1 63.9 1.5 64.8.6.8-.9 7.5-.7 9.1.3 1 .6 1.1 1.3.3 2.7-.7 1.3-.6 2.5.5 4.3 1.2 2.1 1.3 2.3 0 .9-1.3-1.7-1.4-1.6-1.4 1 0 1.5-.5 7.9-1.1 14.3-.7 6.4-1 14.5-.8 18 .4 4.7.3 5.3-.3 2.4-.6-3.5-.8-2.9-1.4 5-.4 4.9-1.1 12.7-1.6 17.1-1 8.3-.6 12.3 1.3 13.7.6.5.1.5-1.1.2-2.1-.6-2.3-.3-2.3 2.7 0 1.8-.6 4-1.3 4.8-4.5 5.5-20.2 12.8-37.1 17.1-7.6 2-9.8 2.1-35.1 1.5-97.4-2.3-166-11.7-250-34.2-29-7.8-90.4-27.7-95.8-31.1-.7-.4-2.1-.9-3.2-1-1-.2-2.2-.8-2.6-1.4-.3-.6-1-1-1.5-1-2.6.2-4.3-1.2-4-3.2.3-1.2.5-4.1.5-6.5.1-2.6.5-4.1 1.1-3.7.6.4 1-1.2 1-3.9 0-2.5.5-4.6 1-4.6.6 0 1 .5 1 1.2 0 .6.2.9.4.7.2-.2-.2-2.9-1-5.9-1.8-6.9-1.8-12-.1-12 2 0 4-19.6 3.8-35.3-.2-8 .1-12.7.8-12.7.5 0 1.2 1.9 1.4 4.2.2 2.4.4-1.3.5-8.2.2-9.2.5-12.1 1.3-11 .9 1.2 1 1.1.6-.7-.7-3 .9-3.9 1.7-1 .3 1.2.6 7.4.7 13.7l.2 11.5 1.5-11.4c1.1-8.7 1.2-11.9.3-13.3-.7-1.1-.7-1.8-.1-1.8.5 0 1 .4 1 .8s.8.8 1.8.9c.9.1 10.3 2.4 20.7 5.2 36.3 9.8 69.3 17.3 101.9 23.1 17.7 3.1 23.5 3.7 15.1 1.5-64-16.9-126.4-38.4-187.5-64.7-29.1-12.5-33.1-14.5-34.6-16.7-1.3-1.8-1.6-3.7-.4-3.4.4.1 1-3.2 1.4-7.4.4-4.2 1.3-10 2.1-12.8.7-2.8 1.6-8.7 2-13.1.5-5.2 1-7.2 1.5-5.9.6 1.4.8.8.7-2 0-5.1 1.4-14.8 2.3-15.5.4-.3 1.4-7.3 2.4-15.5 1-8.3 2.1-16.2 2.6-17.7.9-2.9.3-6.8-1.1-6.8-.5 0-.9 1.8-.9 4s-.4 4-1 4-1 2.6-1 5.7c0 10.4-3.3 34.3-4.7 34.3-.9 0-1.3 1.4-1.3 4 0 2.2-.4 4-.8 4-.5 0-1.7 7.3-2.8 16.2l-1.9 16.3-.6-7c-.6-6-.6-5.6-.5 3.5 0 5.8-.1 10.5-.4 10.6-.3 0-1.4.6-2.6 1.2-1.9 1-2 .8-2.3-3.5-.1-2.5.2-4.9.8-5.2.5-.4 1.2-3.6 1.5-7.1 1.2-13.6 1.9-17.7 2.7-15 .4 1.4.7-1.8.7-7.5-.1-6.5.3-10 1.1-10.3.6-.2 1.1-2.6 1.2-5.5 0-2.9.3-4.6.6-4 .2.7 1 1.3 1.6 1.3.8 0 1.2-3.5 1.3-11.6.1-8.3.5-11.8 1.4-12.4.9-.5 1.1-2.3.8-5.6-.3-2.7-.3-4.3-.1-3.7 1.3 3.7 2.3.2 2.4-8.5.1-5.3.3-8.9.6-8 .9 3.7 2.1 1.6 2.1-4 0-11.4.1-12.2 1.7-12.2.8 0 1.5.9 1.5 2zm1427.8 78.5c3.5.8 10.2 3.1 15 5.1 14.6 6 44.9 24.4 43.7 26.4-.3.6 0 .7.7.5 1.7-.7 21.7 15.2 32.6 25.9 8.2 8.1 8.3 8.2 8 12.6l-.3 4.5-5.5-9.4c-3.3-5.6-7.5-11.1-10.4-13.8-16.1-14.4-55.4-34.9-79.3-41.3-10.1-2.8-21.8-2.8-35-.1-5.6 1.2-11 2.4-12 2.7-2.2.8 3.5-3.3 10-7 6.6-3.9 17.4-7.6 22.2-7.6 2.2 0 6.8.7 10.3 1.5zm-930.6 19.7c-1.1 1.1-5.2.2-5.2-1.1 0-.4 1.4-.6 3.1-.3 2 .3 2.7.8 2.1 1.4zm.8 22.8l-1.1 2.5.6-2.5c.2-1.4.6-4.1.7-6l.1-3.5.4 3.5c.2 2-.1 4.7-.7 6zm-516.3.7c-.4.3.1 1.2 1.1 2 1.5 1.3 1.5 1.3-.6.3-1.9-.9-2.3-3-.5-3 .4 0 .3.3 0 .7zm516 5.5c-.3.8-.6.5-.6-.6-.1-1.1.2-1.7.5-1.3.3.3.4 1.2.1 1.9zm1073.9 29c-.6-1 1.6-1.2 10.6-1.1 6.2.1 13.3.4 15.8.8l4.5.7-7 1.3c-8.6 1.7-30.7 8.8-39.5 12.8l-6.6 3 .9-7.6c.5-4.2 1-7.7 1.1-7.9.2-.1 4.3-.8 9.2-1.6 6.5-.9 9.3-1 10.3-.2 1.1.8 1.3.8.7-.2zm-1080.6 5.3c0 .8-.2 1.5-.4 1.5s-.6-.7-1-1.5c-.3-.8-.1-1.5.4-1.5.6 0 1 .7 1 1.5zm-.3 7.2c-.3 1-.5.4-.5-1.2 0-1.7.2-2.4.5-1.8.2.7.2 2.1 0 3zm-1 6.5c-.3.7-.5.2-.5-1.2s.2-1.9.5-1.3c.2.7.2 1.9 0 2.5zm-4 12.5c-.3 1-.5.4-.5-1.2 0-1.7.2-2.4.5-1.8.2.7.2 2.1 0 3zm28.2 49c5.9 19.9 30.1 105.7 29.8 105.9-.3.3-29.1 2.4-33.5 2.4h-4l5.3-5.4c7.7-7.9 9-12 8.2-25.9-.8-13.3-2.8-26.9-6.3-42.7-2.7-12-8.6-31.5-11-36.2-1.4-2.6-1.3-2.8 1.3-3.4 1.6-.3 3.3-.7 3.8-.9 3.6-1.2 4.5-.4 6.4 6.2zm-23.1 31.9l-.3 3.9-.5-4.7c-.3-2.6-.1-4.3.3-3.9.5.5.7 2.6.5 4.7zm-5.3 43.4c-.4 1.7-.9 3-1.1 2.7-.2-.2-.1-1.8.2-3.6.4-1.7.9-3 1.1-2.7.3.2.2 1.9-.2 3.6zm.9 11.2c-.4.5-.9.7-1.2.4-.3-.3-1.2 0-2.1.7-1.4 1-1.4 1-.4-.4 1.3-1.6 4.6-2.3 3.7-.7zM2104 2172.1c8.5.6 22.7 1.9 31.5 2.8l16 1.6 49 49.5c62.7 63.3 83.8 86.6 109.1 120.5 41.7 56 81.4 127.7 109.5 198l6.8 17-12.5.3-12.6.3.6 2.7c.4 1.5.9 3.5 1.2 4.4.5 1.6-.4 1.8-8.5 1.8-5.7 0-9.1.4-9.1 1s2.5 10.2 5.5 21.3c5.8 21 21.3 82.7 26.3 104.9 1.7 7.5 2.5 12.8 1.9 12.8-2.1 0-26.7-7.1-39.2-11.4-26-8.7-51-20-69.5-31.1-37.8-22.9-71.5-59.6-96.3-105-10.4-19.1-10.2-18.4-8.3-32.8 5.3-39.8 3.6-80.7-4.5-109.7-10.6-37.8-48-122.5-65.1-147.7-22.7-33.4-29.2-42-42.6-56.9-14.2-15.7-31.2-30.7-47.7-41.9l-7-4.8 25 .6c13.8.3 32 1.1 40.5 1.8zm-71 5.8c13.3 8.4 20 14.3 31.6 27.7 39.3 45.8 58.2 78.2 70.3 121.1 8.4 29.9 11.6 56.1 10.8 88.3-.8 31.3-4.6 50.7-13.6 69.4-9.8 20.4-25 40.5-48.1 63.7-13.7 13.9-31.4 29.9-32.9 29.9-.4 0-2.2-3.5-4-7.8-1.8-4.2-4-9.2-5-11.1-1.8-3.4-1.8-3.5 1.5-13 19.5-56.5 24.8-117.2 13.9-161.3-3.3-13.5-8.3-22.6-17.5-31.9-9-9.1-16.9-14.5-30.4-21-28.4-13.4-77.8-24-129.1-27.4-4.9-.3-11.1-.8-13.7-1.1l-4.6-.6 11.1-10.3c25.3-23.3 65.7-57.3 95.2-80 28.1-21.6 55.7-40.1 57.9-38.8.6.4 3.6 2.3 6.6 4.2zm389.1 111.7c67.8 35.9 144.6 65.4 209.9 80.7 55.9 13.2 120.5 20.6 168.5 19.4 33.7-.8 62.7-4.7 82.3-10.9 5.2-1.6 9.5-2.8 9.7-2.6 1 1.2 10.3 18.4 15.4 28.7 20.6 41.1 33.2 77.1 45.6 130.1 3.3 14.1 14.4 67.3 14.1 67.7 0 0-13.6-1.8-30.1-4.2-70.5-10.1-134.2-16.2-240.5-23-42-2.7-108.6-6.5-113.2-6.5-2.3 0-3-.8-5.4-6.3-5.4-12-31.4-63.4-40.4-79.7-14.2-25.5-31-53.3-45-74.3-20.8-31.2-24-35.5-59-79.1-8-10.1-40.2-47-50-57.5-6.6-7-6.2-7 6.1 0 6.8 4 21.2 11.8 32 17.5zm666.4 45.9c144.8 48.8 167.8 56.6 173 58.2 2.8.8 7.4 2.4 10.3 3.5l5.2 1.9v6.7c0 21-7.1 58-18.5 96.8-7.4 25-22.2 66.9-30.3 85.6l-2.1 4.7-11-3.5c-25.7-8.1-57.9-21.6-79.2-33.5-17.8-9.8-34.8-22.1-55.9-40.3-13.2-11.5-31-28.6-31-29.8 0-1.7-8.1-21.8-14.8-36.8-15.6-35.1-35.8-71.3-60.8-109-14.5-21.9-17.4-26.1-39.2-55.2-1.3-1.8 3.6-.2 154.3 50.7zm-933.8 333c11.4 25.7 25.6 53.1 32 61.7 8.4 11 24.1 29.1 48.3 55.3 38.1 41.3 54.1 60.8 60.7 73.8 4.6 9.3 7.2 16.4 23.8 65.7 15.4 45.8 25.2 73.5 33.8 95.2l5.4 13.6-7.1 2.6c-8.1 3-9.6 3.2-9.6 1.3 0-4.3-27-88.2-40.2-124.7-14.2-39.3-19.9-53.3-24.6-60-2.6-3.8-25.8-27.7-55.7-57.5-28.1-28.1-55.7-56.2-61.2-62.5-20.8-23.8-41.1-50.9-39.8-53 .3-.6 3.5-4.8 7-9.4 3.5-4.7 8.7-12.4 11.7-17.2l5.3-8.6 1.3 3.3c.8 1.9 4.8 11 8.9 20.4zm413.3 302.6c0 .5-.5 2.9-1.1 5.2-.7 3-.6 14.9.5 42.2.8 20.8 1.3 38.1 1.1 38.3-.2.3-1.6.2-3-.2l-2.5-.6.1-14.3c.1-25.6 1.5-69.3 2.3-70.5.9-1.5 2.6-1.6 2.6-.1zm25.5 9.6c-.9 2.5-.6 24.9.9 56.8.7 14.8.9 27.4.6 27.8-.4.4-1.4.5-2.2.2-1.3-.5-1.6-5.9-2-40.3-.5-37.9-.1-46.2 2.4-46.2.6 0 .7.8.3 1.7zm294.5 157.2c0 1.3-1.8 1.5-51 6.6-59.6 6.1-60.5 6.2-69.5 8.5-4.4 1.1-10.5 3.2-13.5 4.8l-5.5 2.8-.6 8.4c-.4 4.7-1 50.3-1.4 101.3l-.8 92.8-3.1-.6c-6.4-1.4-6.1 6.1-4.7-99.7.8-60.5 1.6-98.5 2.3-102.2.6-3.2 2.1-6.9 3.2-8.2 2.6-3 3.7-3.1 59.1-8.4 23.7-2.2 48.9-4.7 56-5.4 15.5-1.6 29.5-2 29.5-.7zm-113.2 112.9c-3.9 3.1-3.8 5.6.4 8.7l2.3 1.7-2.5-.7c-3.2-1-5-2.9-5-5.4 0-2.4 4.4-7.1 6.7-7.1 1 0 .3 1-1.9 2.8zm-395.8 72.7c1.7 2.5 2.9 4.5 2.6 4.5-.3 0-1.9-2-3.6-4.5-1.7-2.5-2.9-4.5-2.6-4.5.3 0 1.9 2 3.6 4.5zm4.8 8c-.3.3-.9-.2-1.2-1.2-.6-1.4-.5-1.5.5-.6.7.7 1 1.5.7 1.8zm3.2 4c1.4 1.9 1.4 1.9-.2.6-1-.7-1.8-1.8-1.8-2.4 0-.6.1-.8.3-.6.1.2.9 1.3 1.7 2.4zm4.4 6.5c1.4 2.2 2.6 4.3 2.6 4.7 0 .4-.6-.1-1.3-1.2-3.3-4.8-4.9-7.5-4.4-7.5.2 0 1.6 1.8 3.1 4zm5.3 14.7c-.2 1.6-.4.5-.4-2.2 0-2.8.2-4 .4-2.8.2 1.3.2 3.5 0 5zm.2 31c-.1 15.3-.4 31.4-.8 35.8-.5 5.2-.8-3.9-.9-25.4-.1-29.7.2-38.1 1.4-38.1.2 0 .3 12.5.3 27.7zm-1.2 50.5c-.2 1.3-.4.3-.4-2.2s.2-3.5.4-2.3c.2 1.3.2 3.3 0 4.5zm0 14.5c-.2 1.6-.4.5-.4-2.2 0-2.8.2-4 .4-2.8.2 1.3.2 3.5 0 5zm0 11.5c-.2 1.8-.4.6-.4-2.7 0-3.3.2-4.8.4-3.3s.2 4.2 0 6zm-255.3 86.8l2.6 1v131.5c0 143.9.4 133.9-5.9 131.3l-3.2-1.3V3684c.1-71.2.1-130.5.1-131.8 0-2.5 2.1-2.9 6.4-1.2zm14.9 83.2c.4 45.8.7 105.2.7 131.9 0 43.5-.2 48.8-1.6 49.3-4.7 1.8-4.4 9.3-4.4-131.9V3551H2154.7l.6 83.2zm79.6-33.6l6.1.7v184l3.5 3.8c3.4 3.8 9.5 14.7 9.5 17 0 .7-2.2-2-4.9-5.8-5.5-7.8-9.5-11.5-11.6-10.7-1.6.7-7.7 7.8-11.7 13.8l-2.8 4.1V3600h2.9c1.5 0 5.6.3 9 .6z"/><path d="M993.6 1109.3c.3 1 .9 1.5 1.2 1.2.3-.3 0-1.1-.7-1.8-1-.9-1.1-.8-.5.6zM2405 1652c0 .5.7 1 1.5 1s1.5-.5 1.5-1c0-.6-.7-1-1.5-1s-1.5.4-1.5 1zM2387.9 1744.2c-.6 2.1-.5 3.8.2 3.8.5 0 .9-.2.9-.4s.3-1.1.6-2c.3-.9.1-1.6-.5-1.6s-1.1.1-1.2.2zM2471.3 1828c0 2.5.2 3.5.4 2.2.2-1.2.2-3.2 0-4.5-.2-1.2-.4-.2-.4 2.3zM2473.2 1833.7c-.1.7-1.1 1.3-2.2 1.3s-2 .4-2 1c0 .5.7 1 1.5 1s1.5.7 1.5 1.5-.4 1.5-1 1.5-1 3.3-1 8c0 4.4.4 8 .9 8s.9-3.4.9-7.6c-.1-5 .3-7.9 1.1-8.4.8-.4 1.1-2.1.8-4.1-.2-1.9-.5-2.8-.5-2.2zM2621.8 1839.7c.7.3 1.6.2 1.9-.1.4-.3-.2-.6-1.3-.5-1.1 0-1.4.3-.6.6zM2880 1841c0 .5.7 1 1.6 1 .8 0 1.2-.5.9-1-.3-.6-1-1-1.6-1-.5 0-.9.4-.9 1zM2881.5 1846c-.3.6.1.7.9.4 1.8-.7 2.1-1.4.7-1.4-.6 0-1.3.4-1.6 1zM2467.3 1852.5c0 2.2.2 3 .4 1.7.2-1.2.2-3 0-4-.3-.9-.5.1-.4 2.3zM2469 1860.5c0 1.9-.4 3.5-1 3.5-.5 0-1 2.1-1 4.6 0 2.5-.3 4.3-.7 4.1-.5-.3-.9 6.7-1.1 15.4-.3 17.4 1.2 22.1 2.2 6.6.3-5 .7-11 1-13.2 1.1-10.2 1.8-24.5 1.2-24.5-.3 0-.6 1.6-.6 3.5zM2464.1 1878.6c0 1.1.3 1.4.6.6.3-.7.2-1.6-.1-1.9-.3-.4-.6.2-.5 1.3zM2463 1906.9c0 .7-.4.9-1 .6-.5-.3-1-.1-1 .4 0 .6.4 1.1.9 1.1 1.3 0 2.5-2 1.7-2.7-.3-.4-.6-.1-.6.6zM2882.6 1960.8c-.3.5.1.9.9.9s1.2-.4.9-.9c-.3-.4-.7-.8-.9-.8-.2 0-.6.4-.9.8zM2234.8 3731.1c-.2 29.7 0 54.3.5 54.6.4.2.7-24.1.7-54.1s-.2-54.6-.5-54.6c-.2 0-.6 24.3-.7 54.1z"/></svg>