<?xml version="1.0" standalone="no"?>
<!DOCTYPE svg PUBLIC "-//W3C//DTD SVG 20010904//EN"
 "http://www.w3.org/TR/2001/REC-SVG-20010904/DTD/svg10.dtd">
<svg version="1.0" xmlns="http://www.w3.org/2000/svg"
 width="512.000000pt" height="512.000000pt" viewBox="0 0 512.000000 512.000000"
 preserveAspectRatio="xMidYMid meet">
<metadata>
Created by potrace 1.11, written by Peter Selinger 2001-2013
</metadata>
<g transform="translate(0.000000,512.000000) scale(0.100000,-0.100000)"
fill="#000000" stroke="none">
<path d="M865 4850 c-321 -68 -590 -271 -739 -558 -339 -658 48 -1437 779
-1568 119 -21 3191 -21 3310 0 281 51 521 196 684 416 281 377 293 864 32
1260 -49 75 -170 200 -250 259 -133 99 -266 157 -432 191 -95 19 -138 20
-1696 19 -1527 0 -1602 -1 -1688 -19z m425 -201 c103 -24 242 -90 331 -157
155 -118 266 -287 321 -489 30 -111 30 -315 -1 -428 -45 -170 -160 -354 -286
-458 -173 -142 -352 -207 -570 -207 -249 0 -447 82 -625 260 -172 172 -260
381 -260 618 0 252 95 471 283 649 214 203 508 280 807 212z m2838 20 c318
-35 576 -220 711 -511 65 -138 75 -191 75 -373 0 -148 -2 -166 -28 -245 -54
-162 -126 -280 -237 -386 -106 -100 -230 -173 -371 -216 l-73 -23 -1242 -3
-1243 -2 114 112 c114 113 161 177 218 291 119 240 144 531 67 787 -61 204
-196 402 -369 543 l-45 36 1163 1 c771 0 1196 -4 1260 -11z"/>
<path d="M980 4373 c-315 -53 -541 -382 -476 -693 44 -212 197 -385 398 -451
61 -20 92 -24 188 -23 98 0 125 4 182 26 102 38 173 86 242 160 106 113 156
241 156 398 0 171 -52 294 -174 415 -89 88 -170 134 -279 160 -58 14 -179 18
-237 8z m211 -209 c108 -32 199 -110 248 -213 23 -49 26 -68 26 -161 0 -96 -3
-110 -29 -165 -121 -246 -444 -298 -633 -103 -202 209 -110 555 172 644 56 18
151 17 216 -2z"/>
<path d="M895 2395 c-274 -52 -513 -199 -674 -415 -281 -377 -293 -864 -32
-1260 49 -75 170 -200 250 -259 133 -99 266 -157 432 -191 95 -19 140 -20
1689 -20 1549 0 1594 1 1689 20 209 42 376 129 530 275 94 89 158 173 215 283
339 658 -48 1437 -779 1568 -113 20 -3212 19 -3320 -1z m2391 -297 c-114 -113
-162 -177 -218 -291 -119 -240 -144 -531 -67 -787 61 -204 196 -402 369 -543
l45 -36 -1163 -1 c-771 0 -1196 4 -1260 11 -318 35 -576 220 -711 511 -65 138
-75 191 -75 373 0 148 2 166 28 245 84 253 233 428 463 544 64 32 172 67 243
79 14 2 573 5 1242 6 l1217 1 -113 -112z m932 96 c84 -17 201 -64 290 -116 86
-50 238 -208 291 -301 176 -313 160 -675 -44 -962 -209 -295 -588 -431 -945
-340 -88 22 -231 93 -311 153 -155 118 -266 287 -321 489 -30 111 -30 315 1
428 86 324 351 581 669 649 91 20 275 20 370 0z"/>
<path d="M3925 1910 c-223 -48 -405 -221 -460 -435 -19 -76 -19 -214 0 -290
28 -110 72 -184 159 -270 132 -130 266 -182 446 -172 101 6 181 28 259 74 216
124 337 386 287 623 -44 209 -191 378 -387 447 -80 28 -231 39 -304 23z"/>
</g>
</svg>
